<?xml version="1.0" encoding="UTF-8" standalone="no"?>
<svg
   height="48"
   width="48"
   viewBox="0 0 48 48"
   version="1.1"
   id="svg241"
   xmlns="http://www.w3.org/2000/svg"
   xmlns:svg="http://www.w3.org/2000/svg">
  <defs
     id="defs245" />
  <g
     id="g239">
    <path
       id="path1"
       transform="rotate(0,24,24) translate(2,2.00068712234497) scale(1.375,1.375)  "
       fill="#060505"
       d="M12.126984,0L19.872009,0 19.872009,12.128 32,12.128 32,19.872999 19.872009,19.872999 19.872009,31.999 12.126984,31.999 12.126984,19.872999 0,19.872999 0,12.128 12.126984,12.128z" />
  </g>
  <g
     id="g3"
     transform="matrix(0.3647871,0,0,0.3647871,29.051511,28.822519)">
    <path
       id="path1-1"
       transform="matrix(1.3767643,0,0,1.3767643,3.4641763,2)"
       fill="#060505"
       d="m 12.906017,24.958992 v 5 h 4 v -5 z m 1.999969,-22.4177396 -4.134988,4.9409798 1.53699,0.1310119 c 0.385011,0.031982 0.717013,0.2839966 0.851992,0.6470032 0.136018,0.3619995 0.05002,0.7689819 -0.220001,1.04599 l -6.7180011,6.9049997 1.2739897,0.320007 c 0.3460088,0.08701 0.6200271,0.352997 0.718019,0.695984 0.096985,0.344025 0.004,0.713013 -0.2449956,0.970001 L 3.3619563,22.951227 H 26.450015 l -4.608011,-4.753998 c -0.247986,-0.255981 -0.341003,-0.625 -0.244995,-0.967987 0.09699,-0.34201 0.36899,-0.608001 0.713991,-0.696991 L 23.594999,16.202234 16.871993,9.2992488 C 16.602004,9.0222407 16.516006,8.6142512 16.651992,8.2522517 16.787002,7.888238 17.12001,7.638238 17.505998,7.6052485 L 19.038013,7.4762507 Z M 14.905986,0 c 0.288751,0 0.577501,0.11374666 0.767,0.3412398 l 6.135021,7.3299877 c 0.241,0.2860108 0.29999,0.6809998 0.157015,1.026001 -0.144014,0.3450012 -0.468019,0.5810242 -0.840028,0.611023 l -1.341984,0.112976 6.449995,6.6230175 c 0.248016,0.255005 0.343017,0.623993 0.246002,0.967987 -0.09598,0.34201 -0.367981,0.609009 -0.713989,0.697998 l -1.289006,0.331024 4.947001,5.10199 c 0.248018,0.182007 0.408998,0.476013 0.408998,0.807983 0,0.553009 -0.448,1.000002 -1.000001,1.000002 -0.005,10e-4 -0.01199,10e-4 -0.01999,0 h -9.906004 v 7.007763 h -8 V 24.951229 H 0.99995211 c -0.40197843,0 -0.76498578,-0.23999 -0.9209922,-0.609987 -0.15600593,-0.368988 -0.07699577,-0.796997 0.20300377,-1.085999 l 5.04700692,-5.207 -1.277987,-0.321991 C 3.7049746,17.639242 3.4309566,17.374231 3.333972,17.02923 3.235979,16.685236 3.329972,16.315241 3.5789673,16.059229 L 10.032991,9.4272395 8.6849959,9.3112422 C 8.3129856,9.2802363 7.9909942,9.0442439 7.8469813,8.7002497 7.7039754,8.3552485 7.7629664,7.960229 8.0039942,7.6742488 L 14.138986,0.3412398 C 14.328485,0.11374666 14.617235,0 14.905986,0 Z" />
  </g>
  <g
     id="g461"
     transform="matrix(0.56481227,0,0,0.56481227,10.224216,8.792478)"
     style="fill:#ffffff">
    <path
       id="path459"
       transform="matrix(1.3767643,0,0,1.3767643,3.4641763,2)"
       fill="#060505"
       d="m 12.906017,24.958992 v 5 h 4 v -5 z m 1.999969,-22.4177396 -4.134988,4.9409798 1.53699,0.1310119 c 0.385011,0.031982 0.717013,0.2839966 0.851992,0.6470032 0.136018,0.3619995 0.05002,0.7689819 -0.220001,1.04599 l -6.7180011,6.9049997 1.2739897,0.320007 c 0.3460088,0.08701 0.6200271,0.352997 0.718019,0.695984 0.096985,0.344025 0.004,0.713013 -0.2449956,0.970001 L 3.3619563,22.951227 H 26.450015 l -4.608011,-4.753998 c -0.247986,-0.255981 -0.341003,-0.625 -0.244995,-0.967987 0.09699,-0.34201 0.36899,-0.608001 0.713991,-0.696991 L 23.594999,16.202234 16.871993,9.2992488 C 16.602004,9.0222407 16.516006,8.6142512 16.651992,8.2522517 16.787002,7.888238 17.12001,7.638238 17.505998,7.6052485 L 19.038013,7.4762507 Z M 14.905986,0 c 0.288751,0 0.577501,0.11374666 0.767,0.3412398 l 6.135021,7.3299877 c 0.241,0.2860108 0.29999,0.6809998 0.157015,1.026001 -0.144014,0.3450012 -0.468019,0.5810242 -0.840028,0.611023 l -1.341984,0.112976 6.449995,6.6230175 c 0.248016,0.255005 0.343017,0.623993 0.246002,0.967987 -0.09598,0.34201 -0.367981,0.609009 -0.713989,0.697998 l -1.289006,0.331024 4.947001,5.10199 c 0.248018,0.182007 0.408998,0.476013 0.408998,0.807983 0,0.553009 -0.448,1.000002 -1.000001,1.000002 -0.005,10e-4 -0.01199,10e-4 -0.01999,0 h -9.906004 v 7.007763 h -8 V 24.951229 H 0.99995211 c -0.40197843,0 -0.76498578,-0.23999 -0.9209922,-0.609987 -0.15600593,-0.368988 -0.07699577,-0.796997 0.20300377,-1.085999 l 5.04700692,-5.207 -1.277987,-0.321991 C 3.7049746,17.639242 3.4309566,17.374231 3.333972,17.02923 3.235979,16.685236 3.329972,16.315241 3.5789673,16.059229 L 10.032991,9.4272395 8.6849959,9.3112422 C 8.3129856,9.2802363 7.9909942,9.0442439 7.8469813,8.7002497 7.7039754,8.3552485 7.7629664,7.960229 8.0039942,7.6742488 L 14.138986,0.3412398 C 14.328485,0.11374666 14.617235,0 14.905986,0 Z"
       style="fill:#ffffff" />
  </g>
</svg>
