<?xml version="1.0" encoding="utf-8"?>
<svg xmlns="http://www.w3.org/2000/svg" height="48" width="48" viewBox="0 0 48 48">
  <g>
    <path id="path1" transform="rotate(0,24,24) translate(3.46417628467802,2) scale(1.37676432329123,1.37676432329123)  " fill="#060505" d="M12.906017,24.958992L12.906017,29.958992 16.906017,29.958992 16.906017,24.958992z M14.905986,2.5412524L10.770998,7.4822322 12.307988,7.6132441C12.692999,7.6452266 13.025001,7.8972407 13.15998,8.2602473 13.295998,8.6222468 13.209998,9.0292292 12.939979,9.3062373L6.2219779,16.211237 7.4959676,16.531244C7.8419764,16.61825 8.1159947,16.884241 8.2139866,17.227228 8.3109715,17.571253 8.2179844,17.940241 7.968991,18.197229L3.3619563,22.951227 26.450015,22.951227 21.842004,18.197229C21.594018,17.941248 21.501001,17.572229 21.597009,17.229242 21.693994,16.887232 21.965999,16.621241 22.311,16.532251L23.594999,16.202234 16.871993,9.2992488C16.602004,9.0222407 16.516006,8.6142512 16.651992,8.2522517 16.787002,7.888238 17.12001,7.638238 17.505998,7.6052485L19.038013,7.4762507z M14.905986,0C15.194737,0,15.483487,0.11374666,15.672986,0.3412398L21.808007,7.6712275C22.049007,7.9572383 22.107997,8.3522273 21.965022,8.6972285 21.821008,9.0422297 21.497003,9.2782527 21.124994,9.3082515L19.78301,9.4212275 26.233005,16.044245C26.481021,16.29925 26.576022,16.668238 26.479007,17.012232 26.383029,17.354242 26.111026,17.621241 25.765018,17.71023L24.476012,18.041254 29.423013,23.143244C29.671031,23.325251 29.832011,23.619257 29.832011,23.951227 29.832011,24.504236 29.384011,24.951229 28.83201,24.951229 28.827035,24.952236 28.820016,24.952236 28.812021,24.951229L18.906017,24.951229 18.906017,31.958992 10.906017,31.958992 10.906017,24.951229 0.99995211,24.951229C0.59797368,24.951229 0.23496633,24.711239 0.078959911,24.341242 -0.077046023,23.972254 0.0019641441,23.544245 0.28196368,23.255243L5.3289706,18.048243 4.0509836,17.726252C3.7049746,17.639246 3.4309566,17.374231 3.333972,17.02923 3.2359795,16.685236 3.3299739,16.315241 3.5789673,16.059229L10.032991,9.4272395 8.6849959,9.3112422C8.3129856,9.2802363 7.9909942,9.0442439 7.8469813,8.7002497 7.7039754,8.3552485 7.7629664,7.960229 8.0039942,7.6742488L14.138986,0.3412398C14.328485,0.11374666,14.617235,0,14.905986,0z" />
  </g>
</svg>

