<?xml version="1.0" encoding="UTF-8" standalone="no"?>
<!-- Created with Inkscape (http://www.inkscape.org/) -->

<svg
   width="30.498518mm"
   height="32.51461mm"
   viewBox="0 0 30.498518 32.51461"
   version="1.1"
   id="svg1"
   xml:space="preserve"
   xmlns="http://www.w3.org/2000/svg"
   xmlns:svg="http://www.w3.org/2000/svg"><defs
     id="defs1" /><g
     id="layer1"
     transform="translate(-89.961072,-103.9309)"><path
       class="st0"
       d="m 96.673551,119.01212 h 17.166169 v -5.20171 h -5.46894 c -0.57415,0 -1.37319,-0.30956 -1.75154,-0.68792 -0.37836,-0.37835 -0.60854,-1.06098 -0.60854,-1.63248 v -5.53772 0 H 92.11478 c -0.04762,0 -0.08467,0.0238 -0.108479,0.0476 -0.03969,0.0265 -0.05027,0.0609 -0.05027,0.11113 v 28.16489 c 0,0.037 0.02381,0.0847 0.04762,0.10848 0.02381,0.037 0.07408,0.0476 0.108479,0.0476 h 21.56619 c 0.0476,0 0.045,-0.0238 0.0714,-0.0476 0.037,-0.0238 0.0873,-0.0741 0.0873,-0.10848 v -2.95275 H 96.673551 c -1.095375,0 -2.00025,-0.89958 -2.00025,-2.00025 v -8.31321 c 0,-1.09802 0.899583,-1.9976 2.00025,-1.9976 z m 19.158479,0 h 2.62731 c 1.10067,0 2.00025,0.90223 2.00025,2.00025 v 8.31321 c 0,1.09802 -0.90223,2.00025 -2.00025,2.00025 h -2.62731 v 3.5851 c 0,0.42598 -0.17198,0.80433 -0.44979,1.08479 -0.28046,0.28046 -0.65881,0.44979 -1.08479,0.44979 H 91.495655 c -0.425979,0 -0.804333,-0.16933 -1.084792,-0.44979 -0.280458,-0.28046 -0.449791,-0.65881 -0.449791,-1.08479 v -29.43225 c 0,-0.42598 0.171979,-0.80433 0.449791,-1.08479 0.280459,-0.28046 0.669396,-0.44979 1.084792,-0.44979 h 15.536335 c 0.0344,-0.0132 0.0714,-0.0132 0.10848,-0.0132 0.16933,0 0.34131,0.0741 0.46302,0.18256 h 0.0238 c 0.0238,0.0132 0.037,0.0238 0.0608,0.0476 l 7.93485,8.03275 c 0.13494,0.13493 0.23284,0.3175 0.23284,0.52387 0,0.0609 -0.0132,0.10848 -0.0238,0.17198 v 6.12246 z m -8.00894,-7.68086 v -5.03502 l 5.67002,5.74146 h -4.96358 c -0.19579,0 -0.36513,-0.0847 -0.50006,-0.20637 -0.12171,-0.12171 -0.20638,-0.30427 -0.20638,-0.50007 z"
       id="path1"
       style="fill:#1f74bd;stroke-width:0.264583;fill-opacity:1" /><path
       id="path6"
       style="color:#000000;-inkscape-font-specification:'TimeBurner, Bold';fill:#ffffff;stroke-linecap:round;stroke-linejoin:round;-inkscape-stroke:none"
       d="M 105.16221 121.81818 C 104.83987 121.81818 104.53665 121.87884 104.25374 122.00008 A 0.050005 0.050005 0 0 0 104.25167 122.00008 C 103.97533 122.12098 103.73479 122.28442 103.52717 122.49204 C 103.31939 122.69982 103.154 122.94641 103.03314 123.22843 C 102.9118 123.50578 102.85176 123.80253 102.85176 124.11933 L 102.85176 125.9647 C 102.85176 126.28151 102.9118 126.58031 103.03314 126.85767 C 103.15404 127.13401 103.31955 127.37663 103.52717 127.58424 C 103.73479 127.79187 103.97533 127.95737 104.25167 128.07826 A 0.050005 0.050005 0 0 0 104.25374 128.07826 C 104.53665 128.19952 104.83987 128.25965 105.16221 128.25965 C 105.47835 128.25965 105.77574 128.19911 106.0526 128.07826 C 106.33462 127.9574 106.58121 127.79203 106.78899 127.58424 C 106.99661 127.37663 107.16056 127.13401 107.28146 126.85767 C 107.4028 126.58031 107.46491 126.28151 107.46491 125.9647 L 107.46491 124.11933 C 107.46491 123.80253 107.40285 123.50578 107.28146 123.22843 C 107.1606 122.94641 106.99678 122.69982 106.78899 122.49204 C 106.58159 122.28464 106.33602 122.12088 106.05466 122.00008 L 106.0526 122.00008 C 105.77574 121.87925 105.47835 121.81818 105.16221 121.81818 z M 110.42752 121.81818 C 110.10519 121.81818 109.80249 121.87884 109.51957 122.00008 C 109.24323 122.12098 109.00062 122.28442 108.793 122.49204 C 108.58522 122.69982 108.41983 122.94641 108.29897 123.22843 C 108.17762 123.50578 108.11707 123.80253 108.11707 124.11933 L 108.11707 125.9647 C 108.11707 126.28151 108.17763 126.58031 108.29897 126.85767 C 108.41987 127.13401 108.58538 127.37663 108.793 127.58424 C 109.00062 127.79187 109.24323 127.95737 109.51957 128.07826 C 109.80249 128.19951 110.10519 128.25965 110.42752 128.25965 C 110.74433 128.25965 111.04313 128.19961 111.32049 128.07826 C 111.60251 127.9574 111.84702 127.79203 112.05481 127.58424 C 112.26243 127.37663 112.42794 127.13401 112.54884 126.85767 C 112.67018 126.58031 112.73022 126.28151 112.73022 125.9647 L 112.73022 124.11933 C 112.73022 123.80253 112.67018 123.50578 112.54884 123.22843 C 112.42798 122.94641 112.26259 122.69982 112.05481 122.49204 C 111.84702 122.28425 111.60251 122.12094 111.32049 122.00008 C 111.04313 121.87874 110.74433 121.81818 110.42752 121.81818 z M 113.44129 121.89466 A 0.050005 0.050005 0 0 0 113.39272 121.94324 L 113.39272 128.12477 A 0.050005 0.050005 0 0 0 113.44129 128.17386 L 114.17975 128.17386 A 0.050005 0.050005 0 0 0 114.22832 128.12477 L 114.22832 125.45723 L 115.2634 125.45723 L 116.41992 128.14441 A 0.050005 0.050005 0 0 0 116.46488 128.17386 L 117.26173 128.17386 A 0.050005 0.050005 0 0 0 117.30669 128.10565 C 117.21639 127.89686 117.12095 127.67243 117.01937 127.43541 L 116.71499 126.72434 C 116.61334 126.4815 116.51175 126.24324 116.4101 126.00604 C 116.3147 125.77804 116.22102 125.5615 116.13053 125.35337 C 116.28997 125.30097 116.4442 125.23409 116.58012 125.13477 C 116.73063 125.02478 116.8606 124.89685 116.97079 124.75185 A 0.050005 0.050005 0 0 0 116.97079 124.75133 A 0.050005 0.050005 0 0 0 116.97079 124.75082 A 0.050005 0.050005 0 0 0 116.97079 124.7503 A 0.050005 0.050005 0 0 0 116.97079 124.74978 C 117.08062 124.59947 117.16443 124.43467 117.22246 124.25576 C 117.28646 124.07519 117.31806 123.88236 117.31806 123.67957 C 117.31806 123.43065 117.27264 123.19778 117.17957 122.98245 C 117.08707 122.76858 116.95855 122.57984 116.79664 122.41763 C 116.6394 122.25457 116.45047 122.12586 116.23027 122.03315 C 116.0151 121.94015 115.78638 121.89466 115.54297 121.89466 L 113.44129 121.89466 z M 98.152303 121.90241 A 0.050005 0.050005 0 0 0 98.10166 121.95357 L 98.10166 128.12529 A 0.050005 0.050005 0 0 0 98.152303 128.17386 L 98.888692 128.17386 A 0.050005 0.050005 0 0 0 98.937268 128.12529 L 98.937268 125.27947 L 101.82443 128.16043 A 0.050005 0.050005 0 0 0 101.85957 128.17386 L 102.89258 128.17386 A 0.050005 0.050005 0 0 0 102.92772 128.09015 L 99.611646 124.77149 L 101.8358 122.54733 L 102.40269 121.98871 A 0.050005 0.050005 0 0 0 102.36703 121.90241 L 101.32627 121.90241 A 0.050005 0.050005 0 0 0 101.29113 121.91637 L 98.937268 124.25421 L 98.937268 121.95357 A 0.050005 0.050005 0 0 0 98.888692 121.90241 L 98.152303 121.90241 z M 105.16221 122.65482 C 105.36474 122.65482 105.55238 122.69383 105.72652 122.77006 C 105.90695 122.84656 106.06239 122.95218 106.19316 123.08839 A 0.050005 0.050005 0 0 0 106.19316 123.09045 C 106.32937 123.22122 106.437 123.3746 106.51355 123.55503 A 0.050005 0.050005 0 0 0 106.51355 123.55709 C 106.58975 123.73123 106.62672 123.91732 106.62672 124.11985 L 106.62672 125.96521 C 106.62672 126.16775 106.58993 126.35926 106.51355 126.53934 C 106.43705 126.71416 106.32962 126.86568 106.19316 126.99668 C 106.06236 127.12749 105.90734 127.23261 105.72652 127.30932 C 105.55238 127.38552 105.36474 127.42248 105.16221 127.42249 C 104.96033 127.42249 104.7692 127.38521 104.58964 127.30932 L 104.58809 127.30932 C 104.41332 127.23262 104.25747 127.12775 104.12093 126.99668 C 103.98989 126.86564 103.88701 126.71456 103.81036 126.53934 C 103.73396 126.35926 103.69718 126.16775 103.69718 125.96521 L 103.69718 124.11985 C 103.69718 123.91732 103.73418 123.73123 103.81036 123.55709 A 0.050005 0.050005 0 0 0 103.81036 123.55658 A 0.050005 0.050005 0 0 0 103.81036 123.55606 A 0.050005 0.050005 0 0 0 103.81036 123.55554 A 0.050005 0.050005 0 0 0 103.81036 123.55503 C 103.88706 123.37421 103.99013 123.21919 104.12093 123.08839 C 104.25741 122.95192 104.41371 122.84657 104.58809 122.77006 C 104.76817 122.69366 104.95967 122.65482 105.16221 122.65482 z M 110.42752 122.65482 L 110.42804 122.65482 C 110.63038 122.65489 110.81836 122.6939 110.99235 122.77006 C 111.17278 122.84656 111.32822 122.95218 111.45898 123.08839 A 0.050005 0.050005 0 0 0 111.46105 123.09045 C 111.59727 123.22122 111.70283 123.3746 111.77938 123.55503 A 0.050005 0.050005 0 0 0 111.77938 123.55709 C 111.85558 123.73123 111.89462 123.91732 111.89462 124.11985 L 111.89462 125.96521 C 111.89462 126.16775 111.85581 126.35926 111.77938 126.53934 C 111.70288 126.71416 111.59752 126.86568 111.46105 126.99668 A 0.050005 0.050005 0 0 0 111.45898 126.99668 C 111.32818 127.12749 111.17317 127.23261 110.99235 127.30932 C 110.81821 127.38552 110.63006 127.42248 110.42752 127.42249 C 110.22499 127.42249 110.03554 127.38571 109.85546 127.30932 C 109.68058 127.23282 109.52547 127.12759 109.38883 126.99668 C 109.25778 126.86564 109.15284 126.71456 109.07618 126.53934 L 109.07825 126.53934 C 109.00185 126.35926 108.96301 126.16775 108.96301 125.96521 L 108.96301 124.11985 C 108.96301 123.91732 109 123.73123 109.07618 123.55709 A 0.050005 0.050005 0 0 0 109.07825 123.55503 C 109.15495 123.37421 109.25803 123.21919 109.38883 123.08839 C 109.5257 122.95153 109.68047 122.84662 109.85546 122.77006 C 110.03539 122.69373 110.22519 122.65489 110.42752 122.65482 z M 114.22832 122.73854 L 115.54297 122.73854 C 115.67219 122.73854 115.79199 122.76278 115.90419 122.81088 C 116.02269 122.85938 116.12357 122.9269 116.20908 123.01242 C 116.29458 123.09792 116.36162 123.20036 116.4101 123.31886 C 116.4582 123.43105 116.48245 123.55086 116.48245 123.68008 C 116.48245 123.80929 116.4582 123.9291 116.4101 124.0413 C 116.3617 124.15419 116.29498 124.25255 116.20908 124.33844 C 116.12358 124.42394 116.02269 124.49099 115.90419 124.53946 C 115.79199 124.58756 115.67219 124.61181 115.54297 124.61181 L 114.22832 124.61181 L 114.22832 122.73854 z " /><g
       style="fill:none"
       id="g3"
       transform="matrix(0.26095242,0,0,0.26095242,94.625521,106.5884)"><path
         fill="#1f74bd"
         d="m 6.1816,9.9978 c 1.9385,0 4.0187,0.958 5.0741,2.4174 1.0553,-1.4594 3.1378,-2.6025 5.0763,-2.6025 3.2933,0 6.1816,2.4036 6.1816,7.0065 l 0.074,3.1045 c 0,4.7724 3.1475,5.383 4.4435,5.383 1.296,0 4.325,-0.8676 4.325,-4.9408 v -8.5918 c 0,-1.4779 2.2291,-1.4779 2.2291,0 v 8.5918 c -0.0792,5.3692 -3.9621,7.1595 -6.5541,7.1595 -2.592,0 -6.6652,-1.5333 -6.6652,-7.6017 l -0.0752,-3.2842 c 0,-3.8645 -2.702,-4.4227 -3.9587,-4.4227 -1.9796,0 -3.9592,1.6456 -3.9592,4.4227 v 9.7784 c 0,0.6136 -0.4976,1.1075 -1.1112,1.1075 H 11.252 c -0.6136,0 -1.1113,-0.4939 -1.1113,-1.1075 v -9.7784 c 0,-2.7771 -1.9795,-4.4227 -3.9591,-4.4227 -1.9796,0 -3.9599,1.0446 -3.9588,5.1484 v 9.0527 c 0,0.6099 -0.4976,1.1075 -1.1116,1.1075 C 0.4977,27.5254 0,27.0315 0,26.4179 V 17.3652 C 0,11.9654 2.9786,9.9978 6.1816,9.9978 Z m 20.6283,-7.776 c -2.8294,0 -4.4657,2.4068 -4.4657,4.6285 0,1.6663 -2.2202,1.6663 -2.2206,0 0,-3.888 2.9312,-6.8503 6.6863,-6.8503 3.7551,0 6.6871,2.9623 6.6871,6.8503 0,1.6663 -2.227,1.6663 -2.227,0 0,-2.2217 -1.6307,-4.6286 -4.4601,-4.6286 z m 0.2144,3.2242 c 0.8102,0 1.4664,0.6561 1.4664,1.4664 0,0.8102 -0.6562,1.4663 -1.4664,1.4663 -0.8101,0 -1.4663,-0.6561 -1.4663,-1.4664 0,-0.8102 0.6562,-1.4663 1.4663,-1.4663 z"
         id="path1-5" /></g></g><style
     type="text/css"
     id="style1">.st0{fill-rule:evenodd;clip-rule:evenodd;}</style></svg>
