<?xml version="1.0" encoding="UTF-8" standalone="no"?>
<!-- Created with Inkscape (http://www.inkscape.org/) -->

<svg
   width="30.498518mm"
   height="32.51461mm"
   viewBox="0 0 30.498518 32.51461"
   version="1.1"
   id="svg1"
   xml:space="preserve"
   xmlns="http://www.w3.org/2000/svg"
   xmlns:svg="http://www.w3.org/2000/svg"><defs
     id="defs1" /><path
     d="m 0,-39 c 0,68 73,172 200,172 66,0 114,-37 114,-95 0,-84 -106,-171 -218,-171 -64,0 -96,30 -96,94 z"
     id="path13"
     style="fill:#1f74bd;fill-opacity:1;overflow:visible;stroke:#ff2116;stroke-opacity:1"
     transform="matrix(0.00401123,0,0,-0.00401123,12.345958,8.3010301)" /><path
     d="M 1581,1118 V 530"
     style="fill:#1f74bd;fill-opacity:1;overflow:visible;stroke:#1f74bd;stroke-width:20;stroke-opacity:1"
     id="path11"
     transform="matrix(0.00557115,0,0,0.00557115,4.741346,1.94992)" /><path
     d="m 0,-39 c 0,68 73,172 200,172 66,0 114,-37 114,-95 0,-84 -106,-171 -218,-171 -64,0 -96,30 -96,94 z"
     id="path12"
     style="fill:#1f74bd;fill-opacity:1;overflow:visible;stroke:#ff2116;stroke-opacity:1"
     transform="matrix(0.00401123,0,0,-0.00401123,9.838949,8.8024301)" /><path
     d="M 1131,1208 V 576"
     style="fill:#1f74bd;fill-opacity:1;overflow:visible;stroke:#1f74bd;stroke-width:20;stroke-opacity:1"
     id="path10"
     transform="matrix(0.00557115,0,0,0.00557115,4.741346,1.94992)" /><polygon
     style="fill:#1f74bd;fill-opacity:1;overflow:visible;fill-rule:nonzero;stroke:#ff2116;stroke-opacity:1"
     stroke-width="0"
     points="1121,556 1591,510 1591,600 1121,646 "
     id="polygon11"
     transform="matrix(0.00557115,0,0,0.00557115,4.741346,1.94992)" /><path
     d="m 441,-245 c -23,-4 -48,-6 -76,-6 -59,0 -102,7 -130,20 C 147,-189 85,-138 48,-77 22,-33 5,26 0,99 c -4,60 11,123 44,189 29,57 65,106 110,148 45,42 96,85 153,127 -3,16 -8,46 -13,92 -4,43 -5,73 -5,89 0,117 16,172 69,257 34,54 64,82 89,82 21,0 43,-30 69,-92 26,-62 39,-115 41,-159 2,-120 -19,-173 -67,-256 -13,-20 -63,-90 -98,-118 -13,-9 -25,-19 -37,-29 l 31,-181 c 8,1 18,2 28,2 58,0 102,-12 133,-35 59,-43 92,-104 98,-184 11,-135 -80,-229 -180,-270 8,-57 17,-110 25,-162 5,-31 6,-58 6,-80 0,-30 -5,-53 -14,-70 -35,-64 -88,-99 -158,-103 -42,-3 -83,6 -124,26 -50,24 -77,59 -80,105 -2,34 5,63 20,87 18,28 45,42 79,44 51,4 99,-40 103,-87 4,-56 -30,-94 -105,-115 17,-24 51,-36 102,-36 62,0 116,43 140,85 9,16 13,41 13,74 0,20 -1,42 -5,67 -8,53 -18,106 -26,159 z m 20,1184 c -95,0 -135,-175 -135,-286 0,-24 2,-48 5,-71 50,39 92,82 127,128 43,57 63,106 60,148 -4,54 -23,82 -57,81 z m -55,-820 54,-326 c 80,27 116,88 109,184 -7,99 -62,146 -163,142 z m -24,-2 C 308,115 250,67 254,-10 c 2,-46 43,-99 75,-115 -3,-2 -7,-5 -10,-10 -70,33 -116,88 -123,172 -5,73 42,135 88,170 23,17 49,29 78,36 L 333,413 C 312,400 281,376 241,340 191,296 155,256 132,221 83,146 61,81 65,26 c 5,-68 35,-127 93,-176 58,-49 125,-73 203,-73 25,0 50,3 75,9 -19,111 -36,221 -54,331 z"
     id="path9"
     style="fill:#1f74bd;fill-opacity:1;overflow:visible;stroke:#ff2116;stroke-opacity:1"
     transform="matrix(0.00401123,0,0,-0.00401123,5.24275,7.2982201)" /><path
     d="m 0,405 v 750"
     style="fill:#1f74bd;fill-opacity:1;overflow:visible;stroke:#1f74bd;stroke-width:30;stroke-opacity:1"
     id="path3-0"
     transform="matrix(0.00557115,0,0,0.00557115,4.741346,1.94992)" /><path
     d="M 0,1140 H 1928"
     style="fill:#1f74bd;fill-opacity:1;overflow:visible;stroke:#1f74bd;stroke-width:30;stroke-opacity:1"
     id="path8"
     transform="matrix(0.00557115,0,0,0.00557115,4.741346,1.94992)" /><path
     d="M 0,960 H 1928"
     style="fill:#1f74bd;fill-opacity:1;overflow:visible;stroke:#1f74bd;stroke-width:30;stroke-opacity:1"
     id="path7"
     transform="matrix(0.00557115,0,0,0.00557115,4.741346,1.94992)" /><path
     d="M 0,780 H 1928"
     style="fill:#1f74bd;fill-opacity:1;overflow:visible;stroke:#1f74bd;stroke-width:30;stroke-opacity:1"
     id="path6"
     transform="matrix(0.00557115,0,0,0.00557115,4.741346,1.94992)" /><path
     d="M 0,600 H 1928"
     style="fill:#1f74bd;fill-opacity:1;overflow:visible;stroke:#1f74bd;stroke-width:30;stroke-opacity:1"
     id="path5"
     transform="matrix(0.00557115,0,0,0.00557115,4.741346,1.94992)" /><path
     d="M 0,420 H 1928"
     style="fill:#1f74bd;fill-opacity:1;overflow:visible;stroke:#1f74bd;stroke-width:30;stroke-opacity:1"
     id="path4"
     transform="matrix(0.00557115,0,0,0.00557115,4.741346,1.94992)" /><path
     id="path1"
     style="fill:#1f74bd;stroke-width:0.264583;fill-opacity:1"
     class="st0"
     d="M 107.14039 103.9309 C 107.10331 103.9309 107.06626 103.93114 107.03186 103.94434 L 91.495862 103.94434 C 91.080466 103.94434 90.691116 104.11346 90.410657 104.39392 C 90.132845 104.67438 89.961072 105.05263 89.961072 105.47861 L 89.961072 134.91092 C 89.961072 135.3369 90.130199 135.71515 90.410657 135.99561 C 90.691116 136.27607 91.069883 136.44571 91.495862 136.44571 L 114.29757 136.44571 C 114.72355 136.44571 115.1018 136.27607 115.38226 135.99561 C 115.66007 135.71515 115.83184 135.3369 115.83184 134.91092 L 115.83184 131.32561 L 118.45959 131.32561 C 119.55761 131.32561 120.45947 130.42375 120.45947 129.32573 L 120.45947 121.01254 C 120.45947 119.91453 119.56026 119.01215 118.45959 119.01215 L 115.83184 119.01215 L 115.83184 112.88953 C 115.84244 112.82603 115.85562 112.77834 115.85562 112.71744 C 115.85562 112.51107 115.75801 112.32889 115.62307 112.19396 L 107.68816 104.16086 C 107.66436 104.13706 107.65098 104.12652 107.62718 104.11332 L 107.60341 104.11332 C 107.4817 104.00486 107.30971 103.9309 107.14039 103.9309 z M 92.114946 105.95248 L 106.01074 105.95248 L 106.01074 111.49013 C 106.01074 112.06163 106.24113 112.74424 106.61949 113.12259 C 106.99784 113.50095 107.79665 113.8104 108.3708 113.8104 L 113.83972 113.8104 L 113.83972 119.01215 L 96.673324 119.01215 C 95.572658 119.01215 94.673446 119.91143 94.673446 121.00944 L 94.673446 129.32315 C 94.673446 130.42382 95.57795 131.32303 96.673324 131.32303 L 113.83713 131.32303 L 113.83713 134.27582 C 113.83713 134.3102 113.7868 134.36054 113.7498 134.38434 C 113.7234 134.40814 113.72609 134.43188 113.67849 134.43188 L 92.112362 134.43188 C 92.077963 134.43188 92.027651 134.42134 92.003841 134.38434 C 91.980031 134.36056 91.955782 134.31282 91.955782 134.27582 L 91.955782 106.11113 C 91.955782 106.0609 91.966735 106.02652 92.006425 106.00002 C 92.030234 105.97622 92.067326 105.95248 92.114946 105.95248 z M 112.3225 120.25238 C 113.54934 120.25238 114.50738 121.22023 114.50738 122.49049 C 114.50738 123.03489 113.77977 123.03489 113.77977 122.49049 C 113.77977 121.76463 113.2469 120.97844 112.3225 120.97844 C 111.39809 120.97844 110.86316 121.76463 110.86316 122.49049 C 110.86316 123.03489 110.13827 123.03489 110.13813 122.49049 C 110.13813 121.22023 111.09566 120.25238 112.3225 120.25238 z M 112.39226 122.0316 C 112.65696 122.0316 112.8713 122.24591 112.8713 122.51064 C 112.8713 122.77535 112.65696 122.9902 112.39226 122.9902 C 112.12759 122.9902 111.91322 122.77538 111.91322 122.51064 C 111.91322 122.24594 112.12759 122.0316 112.39226 122.0316 z M 108.89893 123.45839 C 109.9749 123.45839 110.91897 124.24383 110.91897 125.74766 L 110.94274 126.76206 C 110.94274 128.32127 111.97142 128.52061 112.39484 128.52061 C 112.81827 128.52061 113.80768 128.23701 113.80768 126.90624 L 113.80768 124.09918 C 113.80768 123.61633 114.5358 123.61633 114.5358 124.09918 L 114.5358 126.90624 C 114.50992 128.66043 113.24169 129.24563 112.39484 129.24563 C 111.548 129.24563 110.2172 128.74469 110.2172 126.76206 L 110.1924 125.68875 C 110.1924 124.42616 109.30952 124.24387 108.89893 124.24387 C 108.25217 124.24387 107.60547 124.78143 107.60547 125.68875 L 107.60547 128.88338 C 107.60547 129.08385 107.44318 129.24563 107.2427 129.24563 L 107.2396 129.24563 C 107.03913 129.24563 106.87632 129.08385 106.87632 128.88338 L 106.87632 125.68875 C 106.87632 124.78143 106.22962 124.24387 105.58286 124.24387 C 104.9361 124.24387 104.28904 124.58517 104.2894 125.92594 L 104.2894 128.88338 C 104.2894 129.08264 104.12671 129.24563 103.92611 129.24563 C 103.72567 129.24563 103.56334 129.08385 103.56334 128.88338 L 103.56334 125.92594 C 103.56334 124.16175 104.53639 123.51885 105.58286 123.51885 C 106.21619 123.51885 106.89582 123.83218 107.24064 124.30898 C 107.58542 123.83218 108.2656 123.45839 108.89893 123.45839 z "
     transform="translate(-89.961072,-103.9309)" /><style
     type="text/css"
     id="style1">.st0{fill-rule:evenodd;clip-rule:evenodd;}</style></svg>
