<?xml version="1.0" encoding="UTF-8" standalone="no"?>
<!-- Created with Inkscape (http://www.inkscape.org/) -->

<svg
   width="30.762978mm"
   height="32.779442mm"
   viewBox="0 0 30.762978 32.779442"
   version="1.1"
   id="svg1"
   xml:space="preserve"
   xmlns="http://www.w3.org/2000/svg"
   xmlns:svg="http://www.w3.org/2000/svg"><defs
     id="defs1" /><style
     type="text/css"
     id="style1">.st0{fill-rule:evenodd;clip-rule:evenodd;}</style><path
     id="path1"
     style="fill:#f2ca30;fill-opacity:1;stroke:#f2ca30;stroke-width:0.264583;stroke-opacity:1"
     class="st0"
     d="m 17.311606,0.13234186 c -0.0371,0 -0.0741,2.3e-4 -0.10852,0.0134 H 1.6665645 c -0.415395,0 -0.804229,0.16913 -1.084688,0.44959 -0.277812,0.28046 -0.449585,0.65871004 -0.449585,1.08469004 V 31.112332 c 0,0.42598 0.169127,0.80423 0.449585,1.08469 0.280459,0.28046 0.65871,0.4501 1.084688,0.4501 H 24.468786 c 0.42598,0 0.80423,-0.16964 1.08469,-0.4501 0.27781,-0.28046 0.44959,-0.65871 0.44959,-1.08469 v -3.58479 h 2.62723 c 1.09802,0 2.00039,-0.90238 2.00039,-2.0004 v -8.31319 c 0,-1.09802 -0.89972,-2.00039 -2.00039,-2.00039 h -2.62723 V 9.0909419 c 0.0106,-0.0635 0.0238,-0.11067 0.0238,-0.17157 0,-0.20637 -0.0976,-0.38907 -0.23255,-0.524 l -7.93491,-8.03258004 c -0.0238,-0.0238 -0.0372,-0.0344 -0.061,-0.0476 h -0.0238 c -0.12171,-0.10846 -0.29369,-0.18293 -0.46302,-0.18293 z M 2.2861655,2.1539219 H 16.181956 v 5.53765 c 0,0.5715 0.22987,1.25411 0.60823,1.63246 0.37835,0.37836 1.17768,0.6878101 1.75183,0.6878101 h 5.46892 v 5.20175 H 6.8445435 c -1.100666,0 -1.999878,0.89979 -1.999878,1.99781 v 8.31319 c 0,1.10067 0.904504,1.99988 1.999878,1.99988 H 24.008356 v 2.95279 c 0,0.0344 -0.0503,0.0847 -0.0873,0.10852 -0.0264,0.0238 -0.0237,0.0475 -0.0713,0.0475 H 2.2830645 c -0.0344,0 -0.08471,-0.0105 -0.10852,-0.0475 -0.02381,-0.0238 -0.04754,-0.0715 -0.04754,-0.10852 V 2.3125719 c 0,-0.0502 0.01095,-0.0846 0.05064,-0.11111 0.02381,-0.0238 0.0609,-0.0475 0.108521,-0.0475 z M 21.781096,17.239822 h 4.05557 l -1.59163,2.76831 c 0.22577,0.0677 0.43178,0.16942 0.61805,0.30489 0.19191,0.13547 0.35545,0.29639 0.49092,0.48266 0.14111,0.18062 0.24857,0.38348 0.32195,0.60926 0.079,0.22578 0.11833,0.46009 0.11833,0.7028 0,0.3048 -0.0592,0.59258 -0.17776,0.86352 -0.1129,0.26528 -0.27068,0.49959 -0.47388,0.70279 -0.19755,0.19756 -0.43186,0.35586 -0.70279,0.47439 -0.27094,0.11289 -0.55872,0.1695 -0.86352,0.1695 -0.3048,0 -0.58995,-0.0624 -0.85524,-0.18655 -0.26529,-0.12418 -0.4996,-0.29349 -0.7028,-0.50798 -0.19756,-0.21448 -0.35586,-0.46557 -0.47439,-0.75344 -0.1129,-0.28787 -0.16898,-0.59556 -0.16898,-0.92294 h 0.71933 c 0,0.23142 0.0398,0.44895 0.11886,0.65215 0.079,0.19756 0.18334,0.3695 0.31316,0.51625 0.13546,0.14676 0.29325,0.26523 0.47387,0.35554 0.18063,0.0847 0.37299,0.12712 0.57619,0.12712 0.20884,0 0.40332,-0.0393 0.58395,-0.11834 0.18062,-0.079 0.33892,-0.18648 0.47439,-0.32194 0.13546,-0.13547 0.23977,-0.29377 0.31315,-0.47439 0.079,-0.18062 0.11834,-0.37248 0.11834,-0.57568 0,-0.2032 -0.0393,-0.39505 -0.11834,-0.57567 -0.0734,-0.18063 -0.17769,-0.33579 -0.31315,-0.46561 -0.13547,-0.13546 -0.29377,-0.24241 -0.47439,-0.32143 -0.18063,-0.079 -0.37511,-0.11885 -0.58395,-0.11885 h -0.52503 l 1.54099,-2.65824 h -2.8112 z m -10.2278,0.83819 c 0.27658,0 0.53081,0.0592 0.76223,0.17777 0.23707,0.11853 0.4373,0.27894 0.601,0.48214 0.15804,-0.2032 0.35566,-0.36361 0.59273,-0.48214 0.23706,-0.11853 0.49391,-0.17777 0.77049,-0.17777 0.23707,0 0.45985,0.0451 0.66869,0.1354 0.20885,0.0903 0.39232,0.21454 0.55036,0.37258 0.15805,0.15804 0.28227,0.34151 0.37259,0.55036 0.0903,0.20884 0.13539,0.43162 0.13539,0.66869 v 4.52117 h -0.74518 v -4.52117 c 0,-0.13547 -0.0252,-0.26232 -0.076,-0.38086 -0.0508,-0.12418 -0.12156,-0.229 -0.21187,-0.31367 -0.0903,-0.0903 -0.19463,-0.16056 -0.31316,-0.21136 -0.11854,-0.0565 -0.24539,-0.0847 -0.38086,-0.0847 -0.13546,0 -0.26546,0.0283 -0.38964,0.0847 -0.11853,0.0508 -0.22285,0.12105 -0.31316,0.21136 -0.0903,0.0847 -0.16107,0.18949 -0.21187,0.31367 -0.0508,0.11854 -0.076,0.24539 -0.076,0.38086 v 4.52117 h -0.74517 v -4.52117 c 0,-0.13547 -0.0252,-0.26232 -0.076,-0.38086 -0.0508,-0.12418 -0.12157,-0.229 -0.21188,-0.31367 -0.0903,-0.0903 -0.19724,-0.16056 -0.32142,-0.21136 -0.11854,-0.0565 -0.24591,-0.0847 -0.38138,-0.0847 -0.13546,0 -0.26495,0.0283 -0.38912,0.0847 -0.11853,0.0508 -0.22336,0.12105 -0.31368,0.21136 -0.0903,0.0847 -0.16055,0.18949 -0.21135,0.31367 -0.0508,0.11854 -0.0765,0.24539 -0.0765,0.38086 v 4.52117 H 9.8261435 v -4.52117 c 0,-0.23707 0.04508,-0.45985 0.135392,-0.66869 0.09031,-0.20885 0.2119205,-0.39232 0.3643205,-0.55036 0.15804,-0.15804 0.34151,-0.28227 0.55035,-0.37258 0.21449,-0.0903 0.4399,-0.1354 0.67696,-0.1354 z m 5.40174,0.0677 h 2.1084 c 0.23707,0 0.45985,0.0451 0.66869,0.13539 0.20885,0.0903 0.39231,0.21454 0.55036,0.37259 0.15804,0.15805 0.28227,0.34151 0.37258,0.55035 0.0903,0.20885 0.1354,0.43425 0.1354,0.67696 0,0.23707 -0.0451,0.463 -0.1354,0.67748 -0.0903,0.20885 -0.21454,0.39232 -0.37258,0.55036 -0.15805,0.1524 -0.34151,0.274 -0.55036,0.36432 -0.20884,0.0903 -0.43162,0.13539 -0.66869,0.13539 h -1.37149 v 2.71766 h -0.73691 z m 0.73691,0.74466 v 1.973 h 1.37149 c 0.13547,0 0.26232,-0.0257 0.38085,-0.0765 0.12418,-0.0508 0.2285,-0.12104 0.31316,-0.21135 0.0903,-0.0903 0.16108,-0.19463 0.21188,-0.31316 0.0565,-0.11854 0.0847,-0.24591 0.0847,-0.38138 0,-0.13546 -0.0283,-0.26232 -0.0847,-0.38085 -0.0508,-0.12418 -0.12156,-0.23163 -0.21188,-0.32195 -0.0847,-0.0903 -0.18898,-0.16055 -0.31316,-0.21135 -0.11853,-0.0508 -0.24538,-0.0765 -0.38085,-0.0765 z" /><path
     d="m 5.2429382,12.407347 h 0.241322 v 1.40303 h -0.241322 z m 0,-0.65101 h 0.241322 v 0.32551 h -0.241322 z m 1.209412,0.62014 q 0.151527,0 0.283412,0.0589 0.134691,0.0561 0.232903,0.15433 0.101018,0.0982 0.157139,0.23291 0.05893,0.13469 0.05893,0.28621 v 0.70152 h -0.241322 v -0.70152 q 0,-0.10101 -0.03929,-0.19081 -0.03648,-0.0898 -0.103824,-0.15714 -0.06454,-0.0673 -0.154333,-0.10382 -0.08979,-0.0393 -0.193618,-0.0393 -0.101018,0 -0.190812,0.0393 -0.08979,0.0365 -0.15714,0.10382 -0.06454,0.0674 -0.103824,0.15714 -0.03929,0.0898 -0.03929,0.19081 v 0.70152 h -0.238515 v -0.70152 q 0,-0.15152 0.05612,-0.28621 0.05893,-0.1347 0.15714,-0.23291 0.101018,-0.0982 0.232903,-0.15433 0.131885,-0.0589 0.283412,-0.0589 z m 1.380582,0.83621 q -0.07857,0 -0.148721,-0.0281 -0.06735,-0.0281 -0.12066,-0.0758 -0.05332,-0.0505 -0.08699,-0.11785 -0.03087,-0.0673 -0.03367,-0.14592 -0.0028,-0.0168 -0.0028,-0.0421 0,-0.0281 0.0028,-0.0449 0.0028,-0.0758 0.03367,-0.14311 0.03367,-0.0674 0.08699,-0.11786 0.05331,-0.0505 0.12066,-0.0786 0.07015,-0.0281 0.148721,-0.0281 h 0.538764 v 0.24132 h -0.538764 q -0.05893,0 -0.103824,0.0421 -0.04209,0.0393 -0.0477,0.10102 -0.0056,0.0281 0,0.0589 0.0056,0.0589 0.0477,0.10102 0.0449,0.0393 0.103824,0.0393 h 0.193618 q 0.07857,0 0.148722,0.0309 0.07015,0.0281 0.12066,0.0786 0.05332,0.0505 0.08418,0.11785 0.03367,0.0674 0.03648,0.14592 v 0.0786 q 0,0.0814 -0.03367,0.15153 -0.03087,0.0673 -0.08418,0.12066 -0.05051,0.0533 -0.123466,0.0842 -0.07015,0.0281 -0.151528,0.0281 h -0.552793 v -0.23852 h 0.552793 q 0.05612,0 0.09541,-0.0365 0.04209,-0.0365 0.05612,-0.087 v -0.0112 q 0,-0.006 0,-0.008 0.0028,-0.006 0.0028,-0.0112 v -0.0533 q -0.0028,-0.0645 -0.0477,-0.10663 -0.04209,-0.0449 -0.106631,-0.0449 z m 0.858657,-1.14207 h 0.241321 v 0.34234 h 0.491061 v 0.23852 h -0.491061 v 0.7885 q 0,0.0617 0.04209,0.10663 0.0449,0.0421 0.109436,0.0421 0.06454,0 0.106631,-0.0589 0.0449,-0.0589 0.0449,-0.14311 h 0.238515 q 0,0.0926 -0.03087,0.17398 -0.03087,0.0786 -0.08418,0.1403 -0.05051,0.0589 -0.123466,0.0954 -0.07015,0.0337 -0.151528,0.0337 -0.08137,0 -0.154333,-0.0309 -0.07015,-0.0309 -0.123467,-0.0842 -0.05331,-0.0533 -0.08418,-0.12346 -0.03087,-0.0702 -0.03087,-0.15153 z m 1.226248,1.73976 h -0.241321 v -0.70152 q 0,-0.15152 0.06173,-0.28621 0.06173,-0.1347 0.168363,-0.23291 0.1066298,-0.0982 0.2469328,-0.15433 0.143109,-0.0589 0.30586,-0.0589 v 0.24132 q -0.112241,0 -0.210454,0.0393 -0.09821,0.0365 -0.173975,0.10382 -0.07296,0.0674 -0.1150488,0.15714 -0.04209,0.0898 -0.04209,0.19081 z m 1.3300748,0.0252 q -0.11786,0 -0.22168,-0.0449 -0.10102,-0.0449 -0.17678,-0.12066 -0.0758,-0.0758 -0.12066,-0.17679 -0.0421,-0.10382 -0.0421,-0.21887 v -0.86988 h 0.23852 v 0.86988 q 0,0.0674 0.0252,0.12627 0.0253,0.0589 0.0673,0.10383 0.0449,0.0421 0.10382,0.0673 0.0589,0.0253 0.12628,0.0253 0.0673,0 0.12346,-0.0253 0.0589,-0.0252 0.10102,-0.0673 0.0449,-0.0449 0.0701,-0.10383 0.0253,-0.0589 0.0253,-0.12627 v -0.86988 h 0.24132 v 0.86988 q 0,0.11505 -0.0449,0.21887 -0.0449,0.10102 -0.12066,0.17679 -0.0758,0.0758 -0.17959,0.12066 -0.10102,0.0449 -0.21606,0.0449 z m 1.37777,-1.45915 q 0.13469,0 0.24694,0.0589 0.11504,0.0589 0.19361,0.15994 0.0814,-0.10101 0.19362,-0.15994 0.11224,-0.0589 0.24974,-0.0589 0.11505,0 0.21607,0.0449 0.10382,0.0449 0.17959,0.12066 0.0758,0.0758 0.12066,0.17959 0.0449,0.10102 0.0449,0.21606 v 0.87269 h -0.24132 v -0.87269 q 0,-0.0673 -0.0252,-0.12346 -0.0253,-0.0589 -0.0701,-0.10102 -0.0421,-0.0449 -0.10102,-0.0702 -0.0561,-0.0253 -0.12347,-0.0253 -0.0673,0 -0.12627,0.0253 -0.0589,0.0252 -0.10383,0.0702 -0.0421,0.0421 -0.0673,0.10102 -0.0253,0.0561 -0.0253,0.12346 v 0.87269 h -0.23851 v -0.87269 q 0,-0.0673 -0.0252,-0.12346 -0.0253,-0.0589 -0.0702,-0.10102 -0.0449,-0.0449 -0.10382,-0.0702 -0.0561,-0.0253 -0.12347,-0.0253 -0.0673,0 -0.12627,0.0253 -0.0589,0.0252 -0.10382,0.0702 -0.0421,0.0421 -0.0673,0.10102 -0.0252,0.0561 -0.0252,0.12346 v 0.87269 h -0.23852 v -0.87269 q 0,-0.11504 0.0449,-0.21606 0.0449,-0.10383 0.12066,-0.17959 0.0758,-0.0758 0.17678,-0.12066 0.10382,-0.0449 0.21887,-0.0449 z m 2.92672,0.61734 q -0.0225,-0.0786 -0.0673,-0.14592 -0.0421,-0.0702 -0.10383,-0.11785 -0.0617,-0.0505 -0.1403,-0.0786 -0.0758,-0.0281 -0.16275,-0.0281 -0.087,0 -0.16556,0.0281 -0.0758,0.0281 -0.1375,0.0786 -0.0617,0.0477 -0.10663,0.11785 -0.0449,0.0673 -0.0645,0.14592 z m -0.47422,0.85023 q -0.15153,0 -0.28622,-0.0561 -0.13188,-0.0589 -0.2329,-0.15714 -0.0982,-0.10102 -0.15714,-0.2329 -0.0561,-0.13189 -0.0561,-0.28341 0,-0.15153 0.0561,-0.28622 0.0589,-0.13469 0.15714,-0.23291 0.10102,-0.0982 0.2329,-0.15433 0.13469,-0.0589 0.28622,-0.0589 0.15153,0 0.28341,0.0589 0.13469,0.0561 0.2329,0.15433 0.0982,0.0982 0.15434,0.23291 0.0589,0.13469 0.0589,0.28622 0,0.0196 0,0.0421 0,0.0225 -0.006,0.0758 h -1.19819 q 0.0197,0.0814 0.0645,0.14872 0.0449,0.0674 0.10663,0.11786 0.0617,0.0505 0.1375,0.0786 0.0786,0.0281 0.16556,0.0281 0.0673,0 0.13469,-0.0337 0.0673,-0.0365 0.12908,-0.0954 l 0.16836,0.16836 q -0.0926,0.0898 -0.20484,0.14592 -0.10944,0.0533 -0.22729,0.0533 z m 1.73695,-1.46757 q 0.15153,0 0.28341,0.0589 0.13469,0.0561 0.2329,0.15433 0.10102,0.0982 0.15714,0.23291 0.0589,0.13469 0.0589,0.28621 v 0.70152 h -0.24132 v -0.70152 q 0,-0.10101 -0.0393,-0.19081 -0.0365,-0.0898 -0.10383,-0.15714 -0.0645,-0.0673 -0.15433,-0.10382 -0.0898,-0.0393 -0.19362,-0.0393 -0.10102,0 -0.19081,0.0393 -0.0898,0.0365 -0.15714,0.10382 -0.0645,0.0674 -0.10383,0.15714 -0.0393,0.0898 -0.0393,0.19081 v 0.70152 h -0.23852 v -0.70152 q 0,-0.15152 0.0561,-0.28621 0.0589,-0.1347 0.15713,-0.23291 0.10102,-0.0982 0.23291,-0.15433 0.13188,-0.0589 0.28341,-0.0589 z m 0.99615,-0.30586 h 0.24132 v 0.34234 h 0.49106 v 0.23852 h -0.49106 v 0.7885 q 0,0.0617 0.0421,0.10663 0.0449,0.0421 0.10944,0.0421 0.0645,0 0.10663,-0.0589 0.0449,-0.0589 0.0449,-0.14311 h 0.23851 q 0,0.0926 -0.0309,0.17398 -0.0309,0.0786 -0.0842,0.1403 -0.0505,0.0589 -0.12346,0.0954 -0.0701,0.0337 -0.15153,0.0337 -0.0814,0 -0.15433,-0.0309 -0.0701,-0.0309 -0.12347,-0.0842 -0.0533,-0.0533 -0.0842,-0.12346 -0.0309,-0.0702 -0.0309,-0.15153 z m 1.61629,0.30306 q 0.15153,0 0.28622,0.0589 0.13469,0.0561 0.2329,0.15714 0.10102,0.0982 0.15714,0.23291 0.0589,0.13188 0.0589,0.28341 v 0.70151 h -0.24413 v -0.15714 q -0.0982,0.087 -0.22448,0.1375 -0.12347,0.0477 -0.26658,0.0477 -0.15153,0 -0.28341,-0.0561 -0.13189,-0.0589 -0.2329,-0.15714 -0.0982,-0.0982 -0.15714,-0.23009 -0.0561,-0.1347 -0.0561,-0.28622 0,-0.15153 0.0561,-0.28341 0.0589,-0.1347 0.15714,-0.23291 0.10101,-0.10102 0.2329,-0.15714 0.13188,-0.0589 0.28341,-0.0589 z m 0,0.24132 q -0.10102,0 -0.19081,0.0393 -0.0898,0.0365 -0.15714,0.10383 -0.0645,0.0673 -0.10382,0.15714 -0.0393,0.0898 -0.0393,0.19081 0,0.10102 0.0393,0.19081 0.0393,0.0898 0.10382,0.15714 0.0674,0.0645 0.15714,0.10382 0.0898,0.0393 0.19081,0.0393 0.10383,0 0.19362,-0.0393 0.0898,-0.0393 0.15433,-0.10382 0.0674,-0.0674 0.10383,-0.15714 0.0393,-0.0898 0.0393,-0.19081 0,-0.10102 -0.0393,-0.19081 -0.0365,-0.0898 -0.10383,-0.15714 -0.0645,-0.0673 -0.15433,-0.10383 -0.0898,-0.0393 -0.19362,-0.0393 z m 1.72292,-0.24132 q 0.15153,0 0.28622,0.0589 0.13469,0.0561 0.2329,0.15714 0.10102,0.0982 0.15714,0.23291 0.0589,0.13188 0.0589,0.28341 v 0.70151 h -0.24413 v -0.15714 q -0.0982,0.087 -0.22448,0.1375 -0.12347,0.0477 -0.26658,0.0477 -0.15152,0 -0.28341,-0.0561 -0.13188,-0.0589 -0.2329,-0.15714 -0.0982,-0.0982 -0.15714,-0.23009 -0.0561,-0.1347 -0.0561,-0.28622 0,-0.15153 0.0561,-0.28341 0.0589,-0.1347 0.15714,-0.23291 0.10102,-0.10102 0.2329,-0.15714 0.13189,-0.0589 0.28341,-0.0589 z m 0,0.24132 q -0.10102,0 -0.19081,0.0393 -0.0898,0.0365 -0.15714,0.10383 -0.0645,0.0673 -0.10382,0.15714 -0.0393,0.0898 -0.0393,0.19081 0,0.10102 0.0393,0.19081 0.0393,0.0898 0.10382,0.15714 0.0673,0.0645 0.15714,0.10382 0.0898,0.0393 0.19081,0.0393 0.10383,0 0.19362,-0.0393 0.0898,-0.0393 0.15433,-0.10382 0.0674,-0.0674 0.10383,-0.15714 0.0393,-0.0898 0.0393,-0.19081 0,-0.10102 -0.0393,-0.19081 -0.0365,-0.0898 -0.10383,-0.15714 -0.0645,-0.0673 -0.15433,-0.10383 -0.0898,-0.0393 -0.19362,-0.0393 z m 1.00177,-0.85866 h 0.23851 v 1.68925 q 0,0.0645 0.0589,0.10944 0.0617,0.0449 0.14591,0.0449 v 0.23852 q -0.0926,0 -0.17397,-0.0309 -0.0786,-0.0309 -0.1403,-0.0842 -0.0589,-0.0533 -0.0954,-0.12347 -0.0337,-0.0729 -0.0337,-0.15433 z"
     id="text1"
     style="font-weight:bold;font-size:2.80606px;font-family:TimeBurner;-inkscape-font-specification:'TimeBurner, Bold';fill:#f2ca30;fill-opacity:0.980392;stroke:#f2ca30;stroke-width:0.0331425;stroke-linecap:round;stroke-linejoin:round"
     aria-label="instrumentaal" /><path
     d="m 10.346146,5.9011251 c -0.02177,-0.018217 -0.06478,-0.044835 -0.128564,-0.067208 -0.06284,-0.022171 -0.2567246,-0.083987 -0.2567246,-0.083987 0,0 -0.08173,-0.5124487 -0.086413,-0.5446375 C 9.8696146,5.1731148 9.839571,5.069338 9.833551,5.0470664 9.827576,5.0246151 9.7939609,4.8426463 9.7843581,4.7825141 9.7748115,4.7222134 9.7148254,4.3988206 9.702808,4.3260308 9.6907118,4.2532972 9.594752,3.7086036 9.580331,3.6218196 9.5659214,3.5350693 9.5023524,3.134675 9.5023524,3.134675 c 0,0 0.1704906,-0.1541266 0.2015337,-0.1821486 0.031279,-0.028067 0.057661,-0.048923 0.078114,-0.061536 0.020441,-0.012601 0.1943344,-0.1260596 0.2339239,-0.1526553 0.03974,-0.026663 0.104541,-0.068567 0.109314,-0.072801 0.0048,-0.00427 0.0048,-0.014005 0.01562,-0.023844 0.01071,-0.00961 0.03351,-0.036277 0.03351,-0.036277 l -0.01307,-0.035053 c 0,0 -0.2977293,-0.046295 -0.3517292,-0.053202 -0.053989,-0.0071 -0.1548116,-0.022519 -0.1548116,-0.022519 L 8.6621756,3.1709519 6.2832489,4.7936442 5.5295415,5.3089682 c 0,0 0.00612,0.023687 0.012164,0.025079 0.00583,0.0014 0.035816,-0.00281 0.043106,0.00839 0.00843,-0.00129 0.017981,-0.00556 0.024057,-0.00697 0.00593,-0.0014 0.022811,0 0.022811,0 0,0 -0.03603,0.026551 -0.038433,0.029358 -0.00241,0.00271 0.00106,0.016881 -0.00483,0.026551 -0.00603,0.00991 -0.014365,0.018296 -0.013208,0.025371 0.0013,0.00686 0.00599,0.026607 0.012006,0.02791 0.00603,0.0015 0.107966,-0.029437 0.107966,-0.029437 0,0 0.00487,0.00294 0.0013,0.014017 -0.0024,0.00703 -0.00372,0.021036 -0.00372,0.021036 0,0 -0.933767,0.2715269 -0.940809,0.2758509 -0.00375,0.022339 -0.0024,0.260408 0,0.2700669 0.00232,0.00995 0.022676,0.067275 0.02518,0.1065397 0.00473,0.057324 0.00352,0.2337899 -0.016926,0.3136666 -0.020306,0.079764 -0.049137,0.1763533 -0.1343932,0.2252205 -0.085167,0.04917 -0.1488591,0.060312 -0.1799585,0.1037319 -0.03129,0.043375 -0.027674,0.1036758 -0.026472,0.1609889 0.0012,0.057335 0.00728,0.2267029 0.00969,0.231027 0.00232,0.00411 0.038299,0.00411 0.038299,0.00969 0,0.00578 0,0.1135593 0.013264,0.134427 0.013219,0.021036 0.018026,0.026663 0.074306,0.036502 0.056516,0.0098 0.4260017,0.095971 0.498185,0.110583 0.069589,0.013848 0.2231763,0.054517 0.2231763,0.054517 0,0 0.06385,0.7183963 0.06732,0.7533367 0.00362,0.036322 0.030044,0.310769 0.031201,0.345642 0.0012,0.035098 -0.00593,0.067331 -0.014376,0.08146 -0.00848,0.013893 -0.00719,0.022328 -0.00612,0.034918 0.00129,0.012478 0.01934,0.2169094 0.0229,0.22248 0.00362,0.00582 0.1716699,0.04771 0.1763982,0.049126 0.00483,0.0014 0.1177148,-0.082595 0.1235438,-0.089659 0.00608,-0.00694 0.014511,-0.2365976 0.014511,-0.2449874 0,-0.00845 -0.021643,-0.036322 -0.022754,-0.050496 -0.0013,-0.013859 0.00472,-0.1579901 0.00824,-0.2182795 0.00372,-0.060177 0.04214,-0.7841328 0.04214,-0.7841328 0,0 0.5723001,0.12132 0.6228295,0.1316865 0.061244,0.012601 0.7080972,0.1609215 0.7080972,0.1609215 0,0 0.020441,0.7981494 0.021755,0.8402442 0.00106,0.04196 0.011905,0.4787436 0.011905,0.4787436 0,0 -0.019093,-0.00708 -0.025169,-0.00559 -0.00608,0.00122 -0.1141433,0.095106 -0.1165581,0.099374 -0.0023,0.0043 -0.00106,0.0098 -0.0023,0.012601 -0.00117,0.00282 -0.013174,0.011254 -0.014376,0.014073 -0.0012,0.0027 -0.0012,0.1777571 0,0.1820362 0.0012,0.00405 0.016678,0.00268 0.016678,0.00551 0,0.0028 -0.00106,0.015342 -0.00106,0.015342 0,0 -0.026517,0.00703 -0.048081,0.00428 -0.021553,-0.00282 -0.059986,0.019464 -0.06239,0.039264 -0.00237,0.019464 0.0024,0.034929 0.044364,0.04187 0.041937,0.00708 0.1021708,-0.00693 0.1260934,-0.016768 0.023866,-0.0098 0.044307,-0.026674 0.044307,-0.026674 L 7.16433,9.5973325 c 0,0 -0.048081,0.027831 -0.060042,0.036434 -0.011995,0.00839 -0.019194,0.048901 0.01076,0.060132 0.029999,0.011175 0.064906,0.018228 0.093646,0.00557 0.028831,-0.01259 0.040792,-0.050451 0.046812,-0.060132 0.00598,-0.00989 0.013219,-0.015409 0.013219,-0.015409 l 0.1393124,0.039253 c 0,0 -0.016061,0.029482 -0.018026,0.048946 -0.00243,0.022328 -0.00604,0.061536 0.053955,0.068511 0.059952,0.00703 0.080393,-0.014005 0.087626,-0.025136 0.00713,-0.011153 -0.016791,-0.040545 -0.022844,-0.050417 -0.0059,-0.00977 0.00119,-0.016791 0.00119,-0.016791 0,0 0.1332813,0.036277 0.1405255,0.035019 0.00713,-0.00146 0.1055963,-0.099385 0.1067531,-0.105001 0.00124,-0.00558 0,-0.026618 0.00124,-0.029437 0.00118,-0.0028 0.010726,-0.00842 0.010726,-0.013949 0,-0.00563 0.00598,-0.1708386 0.00482,-0.177802 -0.00116,-0.00702 -0.00724,-0.00849 -0.011939,-0.00984 -0.00484,-0.00147 0,-0.012602 -0.00241,-0.015421 -0.00243,-0.00282 -0.078091,-0.026674 -0.078091,-0.026674 0,0 -0.023956,-0.01806 -0.033491,-0.021025 -0.00956,-0.0028 -0.015634,-0.00692 -0.015634,-0.00692 L 8.0393686,8.0893899 9.3162842,8.3610292 c 0,0 0.015623,1.2334842 0.013253,1.2517126 -0.00254,0.018239 -0.00129,0.047665 -0.00486,0.055965 -0.00358,0.00843 -0.026382,0.054606 -0.026382,0.057448 0,0.00268 0.00719,0.261722 0.00843,0.2715718 0.00597,0.00556 0.00719,0.00699 0.014354,0.00839 0.00715,0.0014 0.214854,0.06029 0.2219746,0.05747 0.00724,-0.003 0.075665,-0.1163902 0.079281,-0.1218931 0.00356,-0.00563 0.037277,-0.2716507 0.034862,-0.2772663 -0.00243,-0.00557 -0.018082,-0.04889 -0.019295,-0.057335 -0.00119,-0.00842 0.00598,-0.095264 0.0097,-0.1246333 0.00352,-0.029426 0.1572489,-1.3244575 0.1572489,-1.3244575 0,0 -0.00135,-0.00977 0.00347,-0.016881 0.00482,-0.00691 0.022799,-0.022316 0.027651,-0.046172 0.00471,-0.023855 0.019239,-0.068567 0.029965,-0.099397 0.010917,-0.030717 0.037322,-0.1160975 0.080393,-0.186203 0.043218,-0.06996 0.062457,-0.097982 0.070903,-0.1188604 0.0084,-0.021025 0.0061,-0.033739 0.01079,-0.040837 0.0048,-0.00685 0.163268,-0.1790039 0.166784,-0.1846195 0.0037,-0.00563 0.0037,-0.1120992 0.006,-0.1191974 0.0024,-0.00685 0.03593,-0.041904 0.04076,-0.050226 0.0049,-0.00833 0.01325,-0.058796 0.01798,-0.078383 0.0048,-0.019677 0.02647,-0.050451 0.02889,-0.060357 0.0024,-0.00982 0.07322,-1.2025871 0.07322,-1.2025871 0,0 0.0059,-0.034929 -0.01556,-0.053158 z M 6.5738802,5.1800782 c -0.00737,0.00843 -0.00365,0.018116 -0.00365,0.018116 L 5.814052,5.4152158 5.800833,5.4111758 c 0,0 0.00603,-0.00989 -0.0024,-0.025315 L 6.574996,5.1604046 c 0,0 0.00603,0.01113 -0.00111,0.019677 z m 0.1006433,-0.011344 -0.017891,-0.00563 c 0,0 0.00839,-0.013837 0,-0.026438 0.015477,-0.00422 0.6360936,-0.1819689 0.6360936,-0.1819689 0,0 4.265e-4,0.00668 -0.00372,0.00922 -0.015769,0.00984 -0.00366,0.019295 0.00892,0.016768 0.00111,0.00517 0.00203,0.00905 0.00203,0.00905 z m 0.5749506,4.0491498 -0.015578,-0.00275 0.020396,-1.2923697 0.047991,0.00982 z m 0.020441,0.00703 0.050496,-1.286698 0.1187257,0.022395 -0.018037,1.3021635 z m 0.1968503,0.05035 -0.028842,-0.00699 0.020362,-1.3034551 0.015611,0.00405 z m 0.1512177,0 0.058751,-1.2628877 0.3360842,0.071487 z M 9.5683249,5.5874697 c 0.00159,-0.044554 0.015611,-0.3977101 0.016667,-0.4143549 0.00137,-0.016824 0.00257,-0.05327 -0.058627,-0.079933 C 9.4650646,5.0666312 9.3821892,5.0386654 9.265867,5.0190332 9.1494101,4.9994122 9.0798324,4.9881584 8.9838726,4.9770171 8.8878116,4.9658868 8.5397885,4.9308341 8.4485683,4.9252072 8.3573143,4.9197039 8.0764766,4.8986116 8.006753,4.8958599 c -0.069589,-0.00271 -0.1702659,0 -0.240012,0.00416 -0.069566,0.00417 -0.128261,0.011254 -0.1691428,0.01542 -0.040826,0.00427 -0.248514,0.058773 -0.248514,0.058773 0,0 0.00603,-0.012613 -0.0024,-0.033581 0,0 0.1608091,-0.046228 0.2112936,-0.062996 C 7.6084738,4.8608679 7.857976,4.7488807 7.925139,4.715288 7.992459,4.681549 8.3140438,4.4939985 8.3740861,4.4589571 c 0.060042,-0.034985 0.080483,-0.047531 0.080483,-0.047531 0,0 0.00349,0.00979 0.019149,0.0014 0.015589,-0.00843 0.00843,-0.019643 0.00843,-0.019643 0,0 0.3395322,-0.207228 0.4043927,-0.2477166 C 8.9513898,4.1049105 9.1218132,3.9927887 9.1793846,3.9507838 9.2369226,3.9088128 9.3425748,3.8317549 9.3834791,3.781349 9.4243271,3.730898 9.4182961,3.724025 9.4159371,3.710019 9.4135071,3.695912 9.4062871,3.670755 9.3919021,3.66232 9.3774471,3.65399 9.250231,3.600784 9.2286782,3.585363 9.2070132,3.570111 9.2070132,3.56016 9.2034642,3.546278 9.1997942,3.532104 9.2022042,3.48591 9.2358782,3.4341676 c 0.033514,-0.05181 0.066062,-0.0966 0.1067082,-0.1386724 0.040904,-0.041904 0.1032377,-0.1063038 0.1032377,-0.1063038 0,0 0.080539,0.5277569 0.087626,0.5725247 0.00727,0.045004 0.098565,0.6272658 0.1044395,0.6665303 0.00597,0.039085 0.070802,0.4633344 0.076923,0.5095286 0.00589,0.04634 0.020351,0.1666156 0.021519,0.1834289 0.00125,0.016869 0,0.058897 0.00125,0.077001 0.00115,0.01824 0.080483,0.5026101 0.080483,0.5026101 0,0 -0.1898082,-0.067163 -0.2497382,-0.1133458 z"
     id="path1-2"
     style="overflow:hidden;fill:#f2ca30;fill-opacity:0.980392;stroke-width:0.00739245" /></svg>
