<?xml version="1.0" encoding="UTF-8" standalone="no"?>
<!-- Created with Inkscape (http://www.inkscape.org/) -->

<svg
   width="30.498518mm"
   height="32.51461mm"
   viewBox="0 0 30.498518 32.51461"
   version="1.1"
   id="svg1"
   xml:space="preserve"
   xmlns="http://www.w3.org/2000/svg"
   xmlns:svg="http://www.w3.org/2000/svg"><defs
     id="defs1" /><path
     class="st0"
     d="m 96.673551,119.01212 h 17.166169 v -5.20171 h -5.46894 c -0.57415,0 -1.37319,-0.30956 -1.75154,-0.68792 -0.37836,-0.37835 -0.60854,-1.06098 -0.60854,-1.63248 v -5.53772 0 H 92.11478 c -0.04762,0 -0.08467,0.0238 -0.108479,0.0476 -0.03969,0.0265 -0.05027,0.0609 -0.05027,0.11113 v 28.16489 c 0,0.037 0.02381,0.0847 0.04762,0.10848 0.02381,0.037 0.07408,0.0476 0.108479,0.0476 h 21.56619 c 0.0476,0 0.045,-0.0238 0.0714,-0.0476 0.037,-0.0238 0.0873,-0.0741 0.0873,-0.10848 v -2.95275 H 96.673551 c -1.095375,0 -2.00025,-0.89958 -2.00025,-2.00025 v -8.31321 c 0,-1.09802 0.899583,-1.9976 2.00025,-1.9976 z m 19.158479,0 h 2.62731 c 1.10067,0 2.00025,0.90223 2.00025,2.00025 v 8.31321 c 0,1.09802 -0.90223,2.00025 -2.00025,2.00025 h -2.62731 v 3.5851 c 0,0.42598 -0.17198,0.80433 -0.44979,1.08479 -0.28046,0.28046 -0.65881,0.44979 -1.08479,0.44979 H 91.495655 c -0.425979,0 -0.804333,-0.16933 -1.084792,-0.44979 -0.280458,-0.28046 -0.449791,-0.65881 -0.449791,-1.08479 v -29.43225 c 0,-0.42598 0.171979,-0.80433 0.449791,-1.08479 0.280459,-0.28046 0.669396,-0.44979 1.084792,-0.44979 h 15.536335 c 0.0344,-0.0132 0.0714,-0.0132 0.10848,-0.0132 0.16933,0 0.34131,0.0741 0.46302,0.18256 h 0.0238 c 0.0238,0.0132 0.037,0.0238 0.0608,0.0476 l 7.93485,8.03275 c 0.13494,0.13493 0.23284,0.3175 0.23284,0.52387 0,0.0609 -0.0132,0.10848 -0.0238,0.17198 v 6.12246 z m -8.00894,-7.68086 v -5.03502 l 5.67002,5.74146 h -4.96358 c -0.19579,0 -0.36513,-0.0847 -0.50006,-0.20637 -0.12171,-0.12171 -0.20638,-0.30427 -0.20638,-0.50007 z"
     id="path1"
     style="fill:#1f74bd;fill-opacity:1;stroke-width:0.264583"
     transform="translate(-89.961072,-103.93091)" /><path
     id="path2"
     style="color:#000000;-inkscape-font-specification:'TimeBurner, Bold';fill:#ffffff;stroke-linecap:round;stroke-linejoin:round;-inkscape-stroke:none"
     d="M 102.27143 121.30866 C 101.90573 121.30866 101.56167 121.37613 101.24049 121.51381 A 0.06781578 0.06781578 0 0 0 101.23842 121.51381 C 100.9249 121.65098 100.64982 121.83834 100.41418 122.07398 C 100.17832 122.30984 99.992676 122.58809 99.855558 122.90804 C 99.717785 123.22295 99.648336 123.56245 99.648336 123.92193 L 99.648336 126.00759 C 99.648336 126.36708 99.717786 126.70451 99.855558 127.01942 C 99.992726 127.33295 100.17854 127.60802 100.41418 127.84366 C 100.64982 128.07931 100.9249 128.26718 101.23842 128.40435 A 0.06781578 0.06781578 0 0 0 101.24049 128.40435 C 101.56167 128.54199 101.90573 128.61157 102.27143 128.61157 C 102.63091 128.61157 102.96835 128.54208 103.28326 128.40435 C 103.60321 128.26723 103.88145 128.07953 104.11731 127.84366 C 104.35295 127.60802 104.54033 127.33295 104.67749 127.01942 C 104.81527 126.70451 104.88471 126.36708 104.88471 126.00759 L 104.88471 123.92193 C 104.88471 123.56245 104.81523 123.22295 104.67749 122.90804 C 104.54038 122.58809 104.35317 122.30984 104.11731 122.07398 C 103.88145 121.83812 103.6032 121.65093 103.28326 121.51381 C 102.96835 121.37604 102.63091 121.30866 102.27143 121.30866 z M 113.46661 121.30866 C 113.1009 121.30866 112.75684 121.37613 112.43567 121.51381 A 0.06781578 0.06781578 0 0 0 112.4336 121.51381 C 112.12007 121.65098 111.845 121.83834 111.60936 122.07398 C 111.37349 122.30984 111.18786 122.58809 111.05074 122.90804 C 110.91297 123.22295 110.84352 123.56245 110.84352 123.92193 L 110.84352 126.00759 C 110.84352 126.36708 110.91301 126.70451 111.05074 127.01942 C 111.18791 127.33295 111.37372 127.60802 111.60936 127.84366 C 111.845 128.07931 112.12007 128.26718 112.4336 128.40435 A 0.06781578 0.06781578 0 0 0 112.43567 128.40435 C 112.75684 128.54199 113.1009 128.61157 113.46661 128.61157 C 113.82608 128.61157 114.16352 128.54208 114.47844 128.40435 C 114.79838 128.26723 115.07664 128.07953 115.3125 127.84366 C 115.54814 127.60802 115.73602 127.33295 115.87319 127.01942 C 116.01096 126.70451 116.07989 126.36708 116.07989 126.00759 L 116.07989 125.07793 A 0.06781578 0.06781578 0 0 0 116.01168 125.01179 L 113.65833 125.01179 A 0.06781578 0.06781578 0 0 0 113.5896 125.07793 L 113.5896 125.91199 A 0.06781578 0.06781578 0 0 0 113.65833 125.97865 L 115.11147 125.97865 L 115.11147 126.00759 C 115.11147 126.23507 115.06799 126.44833 114.98228 126.65045 C 114.89638 126.8467 114.77837 127.01706 114.6252 127.16411 C 114.47843 127.31089 114.30278 127.42727 114.09965 127.51344 C 113.90432 127.59894 113.69408 127.64264 113.46661 127.64264 C 113.2398 127.64264 113.02588 127.59865 112.82428 127.51344 L 112.82221 127.51344 C 112.62579 127.42734 112.45213 127.31138 112.29873 127.16411 C 112.15162 127.01701 112.03498 126.84724 111.94888 126.65045 C 111.86318 126.44833 111.82227 126.23507 111.82227 126.00759 L 111.82227 123.92193 C 111.82227 123.69445 111.86343 123.48268 111.94888 123.28735 C 112.03508 123.08422 112.15196 122.91063 112.29873 122.76386 C 112.45206 122.61053 112.62632 122.49011 112.82221 122.4042 C 113.02432 122.3184 113.23913 122.27552 113.46661 122.27552 C 113.77245 122.27552 114.05723 122.36473 114.32806 122.54321 C 114.59951 122.72212 114.81566 122.95662 114.9766 123.25376 A 0.06781578 0.06781578 0 0 0 115.06807 123.28115 L 115.78689 122.8791 A 0.06781578 0.06781578 0 0 0 115.81221 122.78712 C 115.55844 122.33814 115.22206 121.97819 114.80452 121.7107 C 114.3926 121.44263 113.94497 121.30866 113.46661 121.30866 z M 105.67794 121.39444 A 0.06781578 0.06781578 0 0 0 105.60921 121.4611 L 105.60921 128.44724 A 0.06781578 0.06781578 0 0 0 105.67794 128.51545 L 106.50993 128.51545 A 0.06781578 0.06781578 0 0 0 106.57815 128.44724 L 106.57815 125.44329 L 107.72846 125.44329 L 109.03123 128.47463 A 0.06781578 0.06781578 0 0 0 109.09375 128.51545 L 109.99241 128.51545 A 0.06781578 0.06781578 0 0 0 110.05494 128.41985 C 109.9529 128.1839 109.8452 127.93168 109.73041 127.66382 C 109.61558 127.3959 109.49951 127.12921 109.38469 126.86129 C 109.26979 126.58682 109.15593 126.31497 109.04104 126.04687 C 108.93469 125.79282 108.83137 125.55255 108.73047 125.3203 C 108.90751 125.2608 109.07726 125.18648 109.22863 125.07587 C 109.39956 124.95095 109.54886 124.80549 109.67408 124.64075 C 109.79916 124.46957 109.89494 124.28177 109.96088 124.078 L 109.96088 124.07593 C 110.03328 123.87113 110.07044 123.65347 110.07044 123.42377 C 110.07044 123.14105 110.01821 122.87534 109.91231 122.63054 C 109.807 122.38701 109.6613 122.17281 109.47668 121.9882 C 109.29827 121.80317 109.08331 121.65784 108.83382 121.55257 L 108.83227 121.55257 C 108.58817 121.4473 108.32679 121.39444 108.05092 121.39444 L 105.67794 121.39444 z M 102.27143 122.27552 C 102.49891 122.27552 102.70913 122.31869 102.90447 122.4042 C 103.10706 122.4901 103.28123 122.60896 103.42795 122.7618 A 0.06781578 0.06781578 0 0 0 103.4295 122.76386 C 103.58233 122.91058 103.70115 123.08475 103.7871 123.28735 C 103.8726 123.48268 103.91629 123.69445 103.91629 123.92193 L 103.91629 126.00759 C 103.91629 126.23507 103.87281 126.44833 103.7871 126.65045 C 103.7012 126.8467 103.58267 127.01706 103.4295 127.16411 C 103.28272 127.31089 103.1076 127.42727 102.90447 127.51344 C 102.70913 127.59894 102.49891 127.64264 102.27143 127.64264 C 102.04462 127.64264 101.83068 127.59865 101.62909 127.51344 L 101.62703 127.51344 C 101.43062 127.42734 101.25694 127.31138 101.10354 127.16411 C 100.95644 127.01701 100.83978 126.84724 100.75369 126.65045 C 100.66789 126.44833 100.62709 126.23507 100.62709 126.00759 L 100.62709 123.92193 C 100.62709 123.69445 100.66823 123.48268 100.75369 123.28735 C 100.83989 123.08422 100.95677 122.91063 101.10354 122.76386 C 101.25687 122.61053 101.43115 122.49011 101.62703 122.4042 C 101.82915 122.3184 102.04396 122.27552 102.27143 122.27552 z M 106.57815 122.37112 L 108.05092 122.37112 C 108.19555 122.37112 108.32966 122.39907 108.45503 122.45277 C 108.58767 122.50707 108.70155 122.58199 108.79713 122.67756 C 108.89273 122.77316 108.96717 122.88703 109.02141 123.01966 C 109.07511 123.14503 109.10151 123.27914 109.10151 123.42377 C 109.10151 123.56839 109.07511 123.70251 109.02141 123.82788 C 108.96731 123.95419 108.8932 124.06408 108.79713 124.16016 C 108.70153 124.25576 108.58766 124.33019 108.45503 124.38444 C 108.32966 124.43814 108.19555 124.46454 108.05092 124.46454 L 106.57815 124.46454 L 106.57815 122.37112 z "
     transform="translate(-89.961072,-103.93091)" /><g
     style="fill:none"
     id="g3"
     transform="matrix(0.26095242,0,0,0.26095242,4.6644494,2.6574951)"><path
       fill="#1f74bd"
       d="m 6.1816,9.9978 c 1.9385,0 4.0187,0.958 5.0741,2.4174 1.0553,-1.4594 3.1378,-2.6025 5.0763,-2.6025 3.2933,0 6.1816,2.4036 6.1816,7.0065 l 0.074,3.1045 c 0,4.7724 3.1475,5.383 4.4435,5.383 1.296,0 4.325,-0.8676 4.325,-4.9408 v -8.5918 c 0,-1.4779 2.2291,-1.4779 2.2291,0 v 8.5918 c -0.0792,5.3692 -3.9621,7.1595 -6.5541,7.1595 -2.592,0 -6.6652,-1.5333 -6.6652,-7.6017 l -0.0752,-3.2842 c 0,-3.8645 -2.702,-4.4227 -3.9587,-4.4227 -1.9796,0 -3.9592,1.6456 -3.9592,4.4227 v 9.7784 c 0,0.6136 -0.4976,1.1075 -1.1112,1.1075 H 11.252 c -0.6136,0 -1.1113,-0.4939 -1.1113,-1.1075 v -9.7784 c 0,-2.7771 -1.9795,-4.4227 -3.9591,-4.4227 -1.9796,0 -3.9599,1.0446 -3.9588,5.1484 v 9.0527 c 0,0.6099 -0.4976,1.1075 -1.1116,1.1075 C 0.4977,27.5254 0,27.0315 0,26.4179 V 17.3652 C 0,11.9654 2.9786,9.9978 6.1816,9.9978 Z m 20.6283,-7.776 c -2.8294,0 -4.4657,2.4068 -4.4657,4.6285 0,1.6663 -2.2202,1.6663 -2.2206,0 0,-3.888 2.9312,-6.8503 6.6863,-6.8503 3.7551,0 6.6871,2.9623 6.6871,6.8503 0,1.6663 -2.227,1.6663 -2.227,0 0,-2.2217 -1.6307,-4.6286 -4.4601,-4.6286 z m 0.2144,3.2242 c 0.8102,0 1.4664,0.6561 1.4664,1.4664 0,0.8102 -0.6562,1.4663 -1.4664,1.4663 -0.8101,0 -1.4663,-0.6561 -1.4663,-1.4664 0,-0.8102 0.6562,-1.4663 1.4663,-1.4663 z"
       id="path1-5" /></g><style
     type="text/css"
     id="style1">.st0{fill-rule:evenodd;clip-rule:evenodd;}</style></svg>
