<?xml version="1.0" encoding="UTF-8" standalone="no"?>
<!-- Created with Inkscape (http://www.inkscape.org/) -->

<svg
   width="30.498518mm"
   height="32.51461mm"
   viewBox="0 0 30.498518 32.51461"
   version="1.1"
   id="svg1"
   xml:space="preserve"
   inkscape:version="1.3.1 (91b66b0783, 2023-11-16)"
   sodipodi:docname="filelogo-base.svg"
   xmlns:inkscape="http://www.inkscape.org/namespaces/inkscape"
   xmlns:sodipodi="http://sodipodi.sourceforge.net/DTD/sodipodi-0.dtd"
   xmlns="http://www.w3.org/2000/svg"
   xmlns:svg="http://www.w3.org/2000/svg"><sodipodi:namedview
     id="namedview1"
     pagecolor="#ffffff"
     bordercolor="#000000"
     borderopacity="0.25"
     inkscape:showpageshadow="2"
     inkscape:pageopacity="0.0"
     inkscape:pagecheckerboard="0"
     inkscape:deskcolor="#d1d1d1"
     inkscape:document-units="mm"
     showguides="true"
     inkscape:zoom="2.8970539"
     inkscape:cx="13.634541"
     inkscape:cy="86.812331"
     inkscape:window-width="1920"
     inkscape:window-height="1009"
     inkscape:window-x="1912"
     inkscape:window-y="-8"
     inkscape:window-maximized="1"
     inkscape:current-layer="layer1" /><defs
     id="defs1" /><g
     inkscape:label="Laag 1"
     inkscape:groupmode="layer"
     id="layer1"
     transform="translate(-89.961072,-103.9309)"><path
       class="st0"
       d="m 96.673551,119.01212 h 17.166169 v -5.20171 h -5.46894 c -0.57415,0 -1.37319,-0.30956 -1.75154,-0.68792 -0.37836,-0.37835 -0.60854,-1.06098 -0.60854,-1.63248 v -5.53772 0 H 92.11478 c -0.04762,0 -0.08467,0.0238 -0.108479,0.0476 -0.03969,0.0265 -0.05027,0.0609 -0.05027,0.11113 v 28.16489 c 0,0.037 0.02381,0.0847 0.04762,0.10848 0.02381,0.037 0.07408,0.0476 0.108479,0.0476 h 21.56619 c 0.0476,0 0.045,-0.0238 0.0714,-0.0476 0.037,-0.0238 0.0873,-0.0741 0.0873,-0.10848 v -2.95275 H 96.673551 c -1.095375,0 -2.00025,-0.89958 -2.00025,-2.00025 v -8.31321 c 0,-1.09802 0.899583,-1.9976 2.00025,-1.9976 z m 19.158479,0 h 2.62731 c 1.10067,0 2.00025,0.90223 2.00025,2.00025 v 8.31321 c 0,1.09802 -0.90223,2.00025 -2.00025,2.00025 h -2.62731 v 3.5851 c 0,0.42598 -0.17198,0.80433 -0.44979,1.08479 -0.28046,0.28046 -0.65881,0.44979 -1.08479,0.44979 H 91.495655 c -0.425979,0 -0.804333,-0.16933 -1.084792,-0.44979 -0.280458,-0.28046 -0.449791,-0.65881 -0.449791,-1.08479 v -29.43225 c 0,-0.42598 0.171979,-0.80433 0.449791,-1.08479 0.280459,-0.28046 0.669396,-0.44979 1.084792,-0.44979 h 15.536335 c 0.0344,-0.0132 0.0714,-0.0132 0.10848,-0.0132 0.16933,0 0.34131,0.0741 0.46302,0.18256 h 0.0238 c 0.0238,0.0132 0.037,0.0238 0.0608,0.0476 l 7.93485,8.03275 c 0.13494,0.13493 0.23284,0.3175 0.23284,0.52387 0,0.0609 -0.0132,0.10848 -0.0238,0.17198 v 6.12246 z m -8.00894,-7.68086 v -5.03502 l 5.67002,5.74146 h -4.96358 c -0.19579,0 -0.36513,-0.0847 -0.50006,-0.20637 -0.12171,-0.12171 -0.20638,-0.30427 -0.20638,-0.50007 z"
       id="path1"
       style="fill:#1f74bd;stroke-width:0.264583;fill-opacity:1"
       sodipodi:nodetypes="cccsssccscsscsscscssssccsssscscssssscscsccccscccsccscs" /><text
       xml:space="preserve"
       style="font-size:19.7556px;font-family:'ARMY RUST';-inkscape-font-specification:'ARMY RUST, Normal';fill:#000080;stroke:#00045f;stroke-width:0.1;stroke-linecap:round;stroke-linejoin:round;stroke-dasharray:none"
       x="98.159988"
       y="128.12462"
       id="text1"><tspan
         sodipodi:role="line"
         id="tspan1"
         style="font-style:normal;font-variant:normal;font-weight:bold;font-stretch:normal;font-size:8.46667px;font-family:TimeBurner;-inkscape-font-specification:'TimeBurner, Bold';font-variant-ligatures:normal;font-variant-caps:normal;font-variant-numeric:normal;font-variant-east-asian:normal;fill:#ffffff;fill-opacity:1;stroke:#fefefe;stroke-width:0.1;stroke-dasharray:none;stroke-opacity:1"
         x="98.159988"
         y="128.12462">KOOR</tspan></text><g
       style="fill:none"
       id="g3"
       transform="matrix(0.26095242,0,0,0.26095242,94.625521,106.5884)"><path
         fill="#1f74bd"
         d="m 6.1816,9.9978 c 1.9385,0 4.0187,0.958 5.0741,2.4174 1.0553,-1.4594 3.1378,-2.6025 5.0763,-2.6025 3.2933,0 6.1816,2.4036 6.1816,7.0065 l 0.074,3.1045 c 0,4.7724 3.1475,5.383 4.4435,5.383 1.296,0 4.325,-0.8676 4.325,-4.9408 v -8.5918 c 0,-1.4779 2.2291,-1.4779 2.2291,0 v 8.5918 c -0.0792,5.3692 -3.9621,7.1595 -6.5541,7.1595 -2.592,0 -6.6652,-1.5333 -6.6652,-7.6017 l -0.0752,-3.2842 c 0,-3.8645 -2.702,-4.4227 -3.9587,-4.4227 -1.9796,0 -3.9592,1.6456 -3.9592,4.4227 v 9.7784 c 0,0.6136 -0.4976,1.1075 -1.1112,1.1075 H 11.252 c -0.6136,0 -1.1113,-0.4939 -1.1113,-1.1075 v -9.7784 c 0,-2.7771 -1.9795,-4.4227 -3.9591,-4.4227 -1.9796,0 -3.9599,1.0446 -3.9588,5.1484 v 9.0527 c 0,0.6099 -0.4976,1.1075 -1.1116,1.1075 C 0.4977,27.5254 0,27.0315 0,26.4179 V 17.3652 C 0,11.9654 2.9786,9.9978 6.1816,9.9978 Z m 20.6283,-7.776 c -2.8294,0 -4.4657,2.4068 -4.4657,4.6285 0,1.6663 -2.2202,1.6663 -2.2206,0 0,-3.888 2.9312,-6.8503 6.6863,-6.8503 3.7551,0 6.6871,2.9623 6.6871,6.8503 0,1.6663 -2.227,1.6663 -2.227,0 0,-2.2217 -1.6307,-4.6286 -4.4601,-4.6286 z m 0.2144,3.2242 c 0.8102,0 1.4664,0.6561 1.4664,1.4664 0,0.8102 -0.6562,1.4663 -1.4664,1.4663 -0.8101,0 -1.4663,-0.6561 -1.4663,-1.4664 0,-0.8102 0.6562,-1.4663 1.4663,-1.4663 z"
         id="path1-5"
         sodipodi:nodetypes="scsccsssscsccsssssssscssssscscsssccsssss" /></g></g><style
     type="text/css"
     id="style1">.st0{fill-rule:evenodd;clip-rule:evenodd;}</style></svg>
