<?xml version="1.0" encoding="UTF-8" standalone="no"?>
<!-- Created with Inkscape (http://www.inkscape.org/) -->

<svg
   width="210mm"
   height="297mm"
   viewBox="0 0 210 297"
   version="1.1"
   id="svg1"
   xml:space="preserve"
   inkscape:version="1.3.1 (91b66b0783, 2023-11-16)"
   sodipodi:docname="filelogo-mp3.svg"
   xmlns:inkscape="http://www.inkscape.org/namespaces/inkscape"
   xmlns:sodipodi="http://sodipodi.sourceforge.net/DTD/sodipodi-0.dtd"
   xmlns="http://www.w3.org/2000/svg"
   xmlns:svg="http://www.w3.org/2000/svg"><sodipodi:namedview
     id="namedview1"
     pagecolor="#ffffff"
     bordercolor="#000000"
     borderopacity="0.25"
     inkscape:showpageshadow="2"
     inkscape:pageopacity="0.0"
     inkscape:pagecheckerboard="0"
     inkscape:deskcolor="#d1d1d1"
     inkscape:document-units="mm"
     inkscape:zoom="2.0485264"
     inkscape:cx="318.03348"
     inkscape:cy="626.05977"
     inkscape:window-width="1920"
     inkscape:window-height="1009"
     inkscape:window-x="1912"
     inkscape:window-y="-8"
     inkscape:window-maximized="1"
     inkscape:current-layer="svg1" /><defs
     id="defs1" /><g
     inkscape:label="Laag 1"
     inkscape:groupmode="layer"
     id="layer1" /><path
     id="path1"
     style="fill:#f2ca30;fill-opacity:1;stroke-width:0.264583;stroke:#f2ca30;stroke-opacity:1"
     class="st0"
     inkscape:label="Outline"
     d="M 107.14047 103.93078 C 107.10339 103.93078 107.06635 103.93101 107.03195 103.94421 L 91.495428 103.94421 C 91.080033 103.94421 90.691199 104.11334 90.41074 104.3938 C 90.132928 104.67426 89.961155 105.05251 89.961155 105.47849 L 89.961155 134.9108 C 89.961155 135.33678 90.130282 135.71503 90.41074 135.99549 C 90.691199 136.27595 91.06945 136.44559 91.495428 136.44559 L 114.29765 136.44559 C 114.72363 136.44559 115.10188 136.27595 115.38234 135.99549 C 115.66015 135.71503 115.83193 135.33678 115.83193 134.9108 L 115.83193 131.32601 L 118.45916 131.32601 C 119.55718 131.32601 120.45955 130.42363 120.45955 129.32561 L 120.45955 121.01242 C 120.45955 119.9144 119.55983 119.01203 118.45916 119.01203 L 115.83193 119.01203 L 115.83193 112.88941 C 115.84253 112.82591 115.8557 112.77874 115.8557 112.71784 C 115.8557 112.51147 115.75809 112.32877 115.62315 112.19384 L 107.68824 104.16126 C 107.66444 104.13746 107.65106 104.12691 107.62726 104.11371 L 107.60349 104.11371 C 107.48178 104.00525 107.3098 103.93078 107.14047 103.93078 z M 92.115029 105.95236 L 106.01082 105.95236 L 106.01082 111.49001 C 106.01082 112.06151 106.24069 112.74412 106.61905 113.12247 C 106.9974 113.50083 107.79673 113.81028 108.37088 113.81028 L 113.8398 113.81028 L 113.8398 119.01203 L 96.673407 119.01203 C 95.572741 119.01203 94.673529 119.91182 94.673529 121.00984 L 94.673529 129.32303 C 94.673529 130.4237 95.578033 131.32291 96.673407 131.32291 L 113.83722 131.32291 L 113.83722 134.2757 C 113.83722 134.31008 113.78688 134.36042 113.74988 134.38422 C 113.72348 134.40802 113.72617 134.43176 113.67857 134.43176 L 92.111928 134.43176 C 92.077529 134.43176 92.027218 134.42122 92.003408 134.38422 C 91.979598 134.36044 91.955865 134.3127 91.955865 134.2757 L 91.955865 106.11101 C 91.955865 106.06078 91.966818 106.0264 92.006508 105.9999 C 92.030317 105.9761 92.067409 105.95236 92.115029 105.95236 z M 111.60996 121.03826 L 115.66553 121.03826 L 114.0739 123.80657 C 114.29967 123.8743 114.50568 123.97599 114.69195 124.11146 C 114.88386 124.24693 115.0474 124.40785 115.18287 124.59412 C 115.32398 124.77474 115.43144 124.9776 115.50482 125.20338 C 115.58384 125.42916 115.62315 125.66347 115.62315 125.90618 C 115.62315 126.21098 115.56392 126.49876 115.44539 126.7697 C 115.33249 127.03498 115.17471 127.26929 114.97151 127.47249 C 114.77396 127.67005 114.53965 127.82835 114.26872 127.94688 C 113.99778 128.05977 113.71 128.11638 113.4052 128.11638 C 113.1004 128.11638 112.81525 128.054 112.54996 127.92983 C 112.28467 127.80565 112.05036 127.63634 111.84716 127.42185 C 111.6496 127.20737 111.4913 126.95628 111.37277 126.66841 C 111.25987 126.38054 111.20379 126.07285 111.20379 125.74547 L 111.92312 125.74547 C 111.92312 125.97689 111.96296 126.19442 112.04198 126.39762 C 112.121 126.59518 112.22532 126.76712 112.35514 126.91387 C 112.4906 127.06063 112.64839 127.1791 112.82901 127.26941 C 113.00964 127.35407 113.202 127.39653 113.4052 127.39653 C 113.61404 127.39653 113.80852 127.35721 113.98915 127.27819 C 114.16977 127.19917 114.32807 127.09171 114.46354 126.95625 C 114.599 126.82078 114.70331 126.66248 114.77669 126.48186 C 114.85571 126.30124 114.89503 126.10938 114.89503 125.90618 C 114.89503 125.70298 114.85571 125.51113 114.77669 125.33051 C 114.70331 125.14988 114.599 124.99472 114.46354 124.8649 C 114.32807 124.72944 114.16977 124.62249 113.98915 124.54347 C 113.80852 124.46445 113.61404 124.42462 113.4052 124.42462 L 112.88017 124.42462 L 114.42116 121.76638 L 111.60996 121.76638 L 111.60996 121.03826 z M 101.38216 121.87645 C 101.65874 121.87645 101.91297 121.93569 102.14439 122.05422 C 102.38146 122.17275 102.58169 122.33316 102.74539 122.53636 C 102.90343 122.33316 103.10105 122.17275 103.33812 122.05422 C 103.57518 121.93569 103.83203 121.87645 104.10861 121.87645 C 104.34568 121.87645 104.56846 121.92154 104.7773 122.01185 C 104.98615 122.10216 105.16962 122.22639 105.32766 122.38443 C 105.48571 122.54247 105.60993 122.72594 105.70025 122.93479 C 105.79055 123.14363 105.83564 123.36641 105.83564 123.60348 L 105.83564 128.12465 L 105.09046 128.12465 L 105.09046 123.60348 C 105.09046 123.46801 105.0653 123.34116 105.0145 123.22262 C 104.9637 123.09844 104.89294 122.99362 104.80263 122.90895 C 104.71231 122.81864 104.608 122.74839 104.48947 122.69759 C 104.37093 122.64113 104.24408 122.61284 104.10861 122.61284 C 103.97315 122.61284 103.84315 122.64113 103.71897 122.69759 C 103.60044 122.74839 103.49612 122.81864 103.40581 122.90895 C 103.3155 122.99362 103.24474 123.09844 103.19394 123.22262 C 103.14314 123.34116 103.11797 123.46801 103.11797 123.60348 L 103.11797 128.12465 L 102.3728 128.12465 L 102.3728 123.60348 C 102.3728 123.46801 102.34764 123.34116 102.29684 123.22262 C 102.24604 123.09844 102.17527 122.99362 102.08496 122.90895 C 101.99465 122.81864 101.88772 122.74839 101.76354 122.69759 C 101.645 122.64113 101.51763 122.61284 101.38216 122.61284 C 101.2467 122.61284 101.11721 122.64113 100.99304 122.69759 C 100.87451 122.74839 100.76968 122.81864 100.67936 122.90895 C 100.58905 122.99362 100.51881 123.09844 100.46801 123.22262 C 100.41721 123.34116 100.39153 123.46801 100.39153 123.60348 L 100.39153 128.12465 L 99.655137 128.12465 L 99.655137 123.60348 C 99.655137 123.36641 99.700218 123.14363 99.790529 122.93479 C 99.88084 122.72594 100.00245 122.54247 100.15485 122.38443 C 100.31289 122.22639 100.49636 122.10216 100.7052 122.01185 C 100.91969 121.92154 101.1451 121.87645 101.38216 121.87645 z M 106.7839 121.94415 L 108.8923 121.94415 C 109.12937 121.94415 109.35215 121.98923 109.56099 122.07954 C 109.76984 122.16985 109.9533 122.29408 110.11135 122.45213 C 110.26939 122.61018 110.39362 122.79364 110.48393 123.00248 C 110.57425 123.21133 110.61933 123.43673 110.61933 123.67944 C 110.61933 123.91651 110.57425 124.14244 110.48393 124.35692 C 110.39362 124.56577 110.26939 124.74924 110.11135 124.90728 C 109.9533 125.05968 109.76984 125.18128 109.56099 125.2716 C 109.35215 125.36191 109.12937 125.40699 108.8923 125.40699 L 107.52081 125.40699 L 107.52081 128.12465 L 106.7839 128.12465 L 106.7839 121.94415 z M 107.52081 122.68881 L 107.52081 124.66181 L 108.8923 124.66181 C 109.02777 124.66181 109.15462 124.63613 109.27315 124.58533 C 109.39733 124.53453 109.50165 124.46429 109.58631 124.37398 C 109.67663 124.28367 109.74739 124.17935 109.79819 124.06082 C 109.85465 123.94228 109.88294 123.81491 109.88294 123.67944 C 109.88294 123.54398 109.85465 123.41712 109.79819 123.29859 C 109.74739 123.17441 109.67663 123.06696 109.58631 122.97664 C 109.50165 122.88634 109.39733 122.81609 109.27315 122.76529 C 109.15462 122.71449 109.02777 122.68881 108.8923 122.68881 L 107.52081 122.68881 z "
     transform="translate(-0.18265572,28.311795)" /><style
     type="text/css"
     id="style1">.st0{fill-rule:evenodd;clip-rule:evenodd;}</style><g
     style="overflow:hidden;fill:#f2ca30;fill-opacity:0.98039216"
     id="g1"
     transform="matrix(0.00739245,0,0,0.00739245,93.250835,134.60476)"><path
       d="m 911.94645,460.82127 c -2.94438,-2.46429 -8.76326,-6.065 -17.39129,-9.09142 -8.50042,-2.99907 -34.72788,-11.36123 -34.72788,-11.36123 0,0 -11.05586,-69.32055 -11.68941,-73.67483 -0.65329,-4.35276 -4.71738,-18.39098 -5.53172,-21.40372 -0.80826,-3.03706 -5.35549,-27.65256 -6.65448,-35.78683 -1.2914,-8.15706 -9.40591,-51.90343 -11.03155,-61.74993 -1.63628,-9.83891 -14.61707,-83.52133 -16.56784,-95.26087 -1.94924,-11.73498 -10.54841,-65.897591 -10.54841,-65.897591 0,0 23.06279,-20.849187 27.2621,-24.63981 4.23122,-3.7967 7.80002,-6.618018 10.56665,-8.324178 2.7651,-1.704641 26.28823,-17.052487 31.64372,-20.65016 5.37524,-3.606789 14.14153,-9.275252 14.78723,-9.848024 0.6533,-0.577329 0.6533,-1.894552 2.11333,-3.225448 1.4494,-1.30051 4.53356,-4.9073 4.53356,-4.9073 L 886.942,10.258232 c 0,0 -40.2748,-6.262504 -47.57953,-7.196866 C 832.05925,2.101175 818.42061,0.015193 818.42061,0.015193 L 684.1505,91.502148 362.34559,311.00885 260.38922,380.71834 c 0,0 0.82802,3.20418 1.64539,3.39257 0.78851,0.18991 4.84501,-0.37982 5.83103,1.13491 1.14098,-0.17472 2.43238,-0.75205 3.25431,-0.94348 0.80219,-0.18991 3.08568,0 3.08568,0 0,0 -4.87388,3.59159 -5.199,3.97142 -0.32665,0.36614 0.14281,2.28349 -0.6533,3.59159 -0.81586,1.34001 -1.94317,2.47492 -1.78668,3.43207 0.17624,0.92829 0.80978,3.5992 1.62412,3.77543 0.81586,0.20359 14.60491,-3.98205 14.60491,-3.98205 0,0 0.65937,0.39805 0.17624,1.89607 -0.32513,0.95107 -0.50288,2.84563 -0.50288,2.84563 0,0 -126.3136,36.7303 -127.26619,37.31522 -0.50744,3.02187 -0.32513,35.22621 0,36.5328 0.31449,1.34609 3.06744,9.10053 3.40624,14.41196 0.63962,7.75445 0.47554,31.6255 -2.28956,42.43067 -2.74687,10.78999 -6.64689,23.85586 -18.1798,30.46628 -11.52076,6.65145 -20.13664,8.15858 -24.34355,14.03215 -4.23274,5.86749 -3.74352,14.02454 -3.58096,21.77747 0.16256,7.75596 0.9845,30.66682 1.31114,31.25175 0.3145,0.55606 5.18078,0.55606 5.18078,1.31114 0,0.78244 0,15.36152 1.79428,18.18436 1.7882,2.84563 2.43845,3.60679 10.0516,4.93768 7.64506,1.32634 57.62659,12.98232 67.39105,14.95891 9.41351,1.87328 30.18977,7.37463 30.18977,7.37463 0,0 8.63715,97.17972 9.10661,101.90623 0.48921,4.91337 4.0641,42.03869 4.22059,46.75608 0.16256,4.74777 -0.80219,9.10813 -1.94469,11.01939 -1.14706,1.87936 -0.97235,3.02035 -0.82801,4.72347 0.17471,1.68793 2.61621,29.34201 3.09782,30.09557 0.48921,0.78699 23.22232,6.45394 23.86194,6.64537 0.65329,0.18991 15.92365,-11.17284 16.71216,-12.12848 0.82194,-0.93892 1.96292,-32.00531 1.96292,-33.14022 0,-1.14251 -2.92766,-4.91338 -3.07807,-6.83072 -0.17624,-1.8748 0.6381,-21.37182 1.11515,-29.52736 0.50289,-8.14034 5.70037,-106.07212 5.70037,-106.07212 0,0 77.41683,16.41135 84.25211,17.81365 8.28468,1.70464 95.78654,21.76836 95.78654,21.76836 0,0 2.7651,107.96819 2.94286,113.66248 0.14281,5.67606 1.61045,64.76116 1.61045,64.76116 0,0 -2.58279,-0.95715 -3.40473,-0.7566 -0.82193,0.1656 -15.44052,12.86533 -15.76717,13.44266 -0.31145,0.58188 -0.14281,1.32633 -0.31145,1.70464 -0.15801,0.38134 -1.78213,1.52232 -1.94469,1.90367 -0.16256,0.36462 -0.16256,24.04576 0,24.62461 0.16256,0.54847 2.25614,0.36311 2.25614,0.74597 0,0.37831 -0.14281,2.07535 -0.14281,2.07535 0,0 -3.58704,0.95107 -6.50407,0.57885 -2.91551,-0.38134 -8.11452,2.63292 -8.43965,5.31143 -0.32057,2.63292 0.32513,4.72498 6.00119,5.6639 5.67302,0.95715 13.82096,-0.9374 17.05705,-2.26829 3.22848,-1.32634 5.99359,-3.60831 5.99359,-3.60831 l 16.08622,5.13063 c 0,0 -6.50407,3.7648 -8.12212,4.92857 -1.62259,1.13491 -2.59646,6.61498 1.45548,8.13427 4.05802,1.51169 8.77997,2.4658 12.66782,0.75357 3.90002,-1.70313 5.51806,-6.82464 6.3324,-8.13427 0.80826,-1.33849 1.7882,-2.08446 1.7882,-2.08446 l 18.84524,5.30991 c 0,0 -2.17258,3.98813 -2.43845,6.62105 -0.32817,3.02035 -0.81738,8.32418 7.29866,9.26766 8.10995,0.95107 10.87506,-1.89455 11.85348,-3.40017 0.96475,-1.50865 -2.27133,-5.48463 -3.09023,-6.82008 -0.79763,-1.32178 0.16104,-2.27133 0.16104,-2.27133 0,0 18.02939,4.9073 19.00933,4.73713 0.96475,-0.1975 14.28435,-13.44417 14.44083,-14.20382 0.16713,-0.75508 0,-3.60071 0.16713,-3.98205 0.15952,-0.3783 1.45092,-1.13947 1.45092,-1.88696 0,-0.76116 0.80826,-23.10988 0.65177,-24.05184 -0.15649,-0.94956 -0.97994,-1.14858 -1.615,-1.3309 -0.65482,-0.19902 0,-1.70464 -0.32665,-2.08598 -0.32817,-0.38134 -10.56361,-3.60831 -10.56361,-3.60831 0,0 -3.24064,-2.44301 -4.53051,-2.84411 -1.29292,-0.3783 -2.11485,-0.93588 -2.11485,-0.93588 l 55.04835,-166.09614 172.7324,36.7455 c 0,0 2.11332,166.8573 1.79276,169.32311 -0.34336,2.46732 -0.17472,6.44786 -0.65786,7.57061 -0.48465,1.14098 -3.5688,7.38678 -3.5688,7.77116 0,0.36311 0.97234,35.40397 1.14098,36.73637 0.80826,0.7521 0.97235,0.945 1.94165,1.1349 0.96779,0.1869 29.06398,8.1556 30.02721,7.7742 0.97994,-0.4026 10.23544,-15.7444 10.72465,-16.4888 0.48161,-0.7612 5.04252,-36.74704 4.71587,-37.50668 -0.32817,-0.75357 -2.44605,-6.61346 -2.61014,-7.75596 -0.16104,-1.13947 0.80826,-12.8866 1.31267,-16.85954 0.47553,-3.98054 21.27155,-179.16354 21.27155,-179.16354 0,0 -0.18232,-1.32178 0.46946,-2.28349 0.65177,-0.93436 3.08415,-3.01882 3.74048,-6.24579 0.63659,-3.22697 2.60254,-9.27525 4.05346,-13.4457 1.47675,-4.15525 5.0486,-15.70488 10.87507,-25.18827 5.84622,-9.46364 8.44876,-13.25427 9.59126,-16.07862 1.14098,-2.84411 0.82041,-4.56394 1.46004,-5.52413 0.65329,-0.92677 22.08588,-24.21441 22.56142,-24.97406 0.49833,-0.76116 0.49833,-15.16401 0.81738,-16.1242 0.32816,-0.92677 4.8602,-5.66846 5.51349,-6.79425 0.66393,-1.12732 1.79276,-7.95348 2.43238,-10.60311 0.65482,-2.6618 3.58096,-6.82465 3.90761,-8.16466 0.32665,-1.32786 9.90424,-162.67774 9.90424,-162.67774 0,0 0.80369,-4.72499 -2.10422,-7.19079 z M 401.6602,363.28299 c -0.99665,1.14099 -0.49377,2.45061 -0.49377,2.45061 l -102.29061,29.3572 -1.7882,-0.54694 c 0,0 0.81586,-1.3385 -0.32513,-3.42448 L 401.81061,360.6212 c 0,0 0.81586,1.50561 -0.15041,2.66179 z m 13.61434,-1.53448 -2.42023,-0.76116 c 0,0 1.13491,-1.87177 0,-3.57641 2.09358,-0.57125 86.04639,-24.6155 86.04639,-24.6155 0,0 0.0577,0.90398 -0.50288,1.24734 -2.13308,1.33089 -0.49529,2.61013 1.20631,2.26829 0.15041,0.69888 0.27499,1.22455 0.27499,1.22455 z m 77.77538,547.74125 -2.10725,-0.37223 2.75903,-174.82293 6.49191,1.32786 z m 2.76511,0.95107 6.83071,-174.05569 16.0604,3.02946 -2.43998,176.14775 z m 26.62855,6.81097 -3.90153,-0.945 2.75447,-176.32247 2.11181,0.54846 z m 20.4557,0 7.94739,-170.8348 45.46317,9.67026 z M 806.72817,418.39212 c 0.21573,-6.02702 2.11181,-53.7995 2.25462,-56.05109 0.18535,-2.27589 0.34792,-7.20598 -7.93068,-10.81277 -8.29228,-3.5916 -19.5031,-7.37462 -35.23837,-10.03034 -15.75349,-2.65419 -25.16548,-4.17652 -38.14627,-5.68365 -12.99447,-1.50562 -60.07265,-6.24732 -72.4123,-7.00848 -12.34422,-0.74445 -50.33401,-3.59767 -59.76575,-3.9699 -9.4135,-0.36614 -23.0324,0 -32.46718,0.56214 -9.41047,0.56366 -17.35026,1.52233 -22.88047,2.08598 -5.52261,0.57733 -33.61728,7.95043 -33.61728,7.95043 0,0 0.81585,-1.70616 -0.32513,-4.54267 0,0 21.75316,-6.25339 28.58236,-8.52168 6.83072,-2.2683 40.5817,-17.41712 49.66704,-21.96131 9.10661,-4.56394 52.60838,-29.93453 60.73049,-34.6747 8.12211,-4.73259 10.88722,-6.42963 10.88722,-6.42963 0,0 0.4725,1.32482 2.59038,0.18991 2.10878,-1.14098 1.14099,-2.65723 1.14099,-2.65723 0,0 45.92959,-28.03238 54.70348,-33.50941 8.77237,-5.48615 31.82604,-20.6532 39.61391,-26.33534 7.78331,-5.67758 22.07525,-16.10141 27.6085,-22.91998 5.52565,-6.82464 4.70979,-7.75444 4.39074,-9.64899 -0.32817,-1.90823 -1.30507,-5.31143 -3.25128,-6.45242 -1.95532,-1.12731 -19.16429,-8.32418 -22.07981,-10.41016 -2.9307,-2.06319 -2.9307,-3.40928 -3.4108,-5.28712 -0.4968,-1.91734 -0.17016,-8.16617 4.38467,-15.16553 4.53355,-7.00848 8.93645,-13.0674 14.43475,-18.75865 5.53325,-5.66846 13.9653,-14.380057 13.9653,-14.380057 0,0 10.89481,71.391337 11.85348,77.447217 0.98298,6.08779 13.33327,84.85223 14.12786,90.16366 0.80826,5.28712 9.57759,62.6767 10.4056,68.92553 0.79611,6.26858 2.75295,22.53863 2.91095,24.81301 0.16865,2.28197 0,7.96714 0.16865,10.41623 0.15496,2.46733 10.88721,67.98965 10.88721,67.98965 0,0 -25.67596,-9.08534 -33.78288,-15.33265 z"
       id="path1-2"
       style="fill:#f2ca30;fill-opacity:0.98039216" /></g><text
     xml:space="preserve"
     style="font-style:normal;font-variant:normal;font-weight:bold;font-stretch:normal;font-size:2.80606px;font-family:TimeBurner;-inkscape-font-specification:'TimeBurner, Bold';font-variant-ligatures:normal;font-variant-caps:normal;font-variant-numeric:normal;font-variant-east-asian:normal;fill:#f2ca30;fill-opacity:0.980392;stroke:#f2ca30;stroke-width:0.0331425;stroke-linecap:round;stroke-linejoin:round;stroke-opacity:1"
     x="94.891953"
     y="145.92061"
     id="text1"><tspan
       sodipodi:role="line"
       id="tspan1"
       style="stroke-width:0.0331425"
       x="94.891953"
       y="145.92061">instrumentaal</tspan></text></svg>
