<?xml version="1.0" encoding="UTF-8" standalone="no"?>
<!-- Created with Inkscape (http://www.inkscape.org/) -->

<svg
   width="30.762978mm"
   height="32.779442mm"
   viewBox="0 0 30.762978 32.779442"
   version="1.1"
   id="svg1"
   xml:space="preserve"
   inkscape:version="1.3.1 (91b66b0783, 2023-11-16)"
   sodipodi:docname="filelogo-mp3-ingezongenl.svg"
   xmlns:inkscape="http://www.inkscape.org/namespaces/inkscape"
   xmlns:sodipodi="http://sodipodi.sourceforge.net/DTD/sodipodi-0.dtd"
   xmlns="http://www.w3.org/2000/svg"
   xmlns:svg="http://www.w3.org/2000/svg"><sodipodi:namedview
     id="namedview1"
     pagecolor="#ffffff"
     bordercolor="#000000"
     borderopacity="0.25"
     inkscape:showpageshadow="2"
     inkscape:pageopacity="0.0"
     inkscape:pagecheckerboard="0"
     inkscape:deskcolor="#d1d1d1"
     inkscape:document-units="mm"
     inkscape:zoom="2.8970539"
     inkscape:cx="-36.416306"
     inkscape:cy="58.162536"
     inkscape:window-width="1920"
     inkscape:window-height="1009"
     inkscape:window-x="1912"
     inkscape:window-y="-8"
     inkscape:window-maximized="1"
     inkscape:current-layer="svg1" /><defs
     id="defs1" /><path
     d="m 5.2429382,12.407377 h 0.241322 v 1.40303 h -0.241322 z m 0,-0.65101 h 0.241322 v 0.32551 h -0.241322 z m 1.209412,0.62014 q 0.151527,0 0.283412,0.0589 0.134691,0.0561 0.232903,0.15433 0.101018,0.0982 0.157139,0.23291 0.05893,0.13469 0.05893,0.28621 v 0.70152 h -0.241322 v -0.70152 q 0,-0.10101 -0.03929,-0.19081 -0.03648,-0.0898 -0.103824,-0.15714 -0.06454,-0.0673 -0.154333,-0.10382 -0.08979,-0.0393 -0.193618,-0.0393 -0.101018,0 -0.190812,0.0393 -0.08979,0.0365 -0.15714,0.10382 -0.06454,0.0674 -0.103824,0.15714 -0.03929,0.0898 -0.03929,0.19081 v 0.70152 h -0.238515 v -0.70152 q 0,-0.15152 0.05612,-0.28621 0.05893,-0.1347 0.15714,-0.23291 0.101018,-0.0982 0.232903,-0.15433 0.131885,-0.0589 0.283412,-0.0589 z m 1.71731,0.006 q 0.151527,0 0.283412,0.0589 0.13469,0.0561 0.232903,0.15433 0.101018,0.0982 0.157139,0.23291 0.05893,0.13469 0.05893,0.28622 0,0.20203 -0.09821,0.36759 -0.09541,0.16556 -0.260963,0.26096 0.08137,0.0786 0.13469,0.18801 0.05332,0.11224 0.05332,0.23571 0,0.11505 -0.0477,0.21606 -0.0477,0.10383 -0.131885,0.17959 -0.08418,0.0758 -0.196425,0.12066 -0.109436,0.0449 -0.235709,0.0449 v -0.23851 q 0.07576,0 0.14311,-0.0253 0.07015,-0.0252 0.12066,-0.0702 0.05051,-0.0449 0.07857,-0.10383 0.03087,-0.0561 0.03087,-0.12346 0,-0.0674 -0.02525,-0.12627 -0.02526,-0.0561 -0.07015,-0.10102 -0.0449,-0.0449 -0.103824,-0.0702 -0.05612,-0.0253 -0.123466,-0.0253 -0.151528,0 -0.283413,-0.0561 -0.131884,-0.0589 -0.232903,-0.15714 -0.09821,-0.10102 -0.157139,-0.2329 -0.05612,-0.13189 -0.05612,-0.28341 0,-0.15153 0.05612,-0.28622 0.05893,-0.13469 0.157139,-0.23291 0.101019,-0.0982 0.232903,-0.15433 0.131885,-0.0589 0.283413,-0.0589 z m 0,0.24133 q -0.101019,0 -0.190813,0.0393 -0.08979,0.0365 -0.157139,0.10382 -0.06454,0.0674 -0.103824,0.15714 -0.03928,0.0898 -0.03928,0.19082 0,0.10101 0.03928,0.19081 0.03929,0.0898 0.103824,0.15714 0.06735,0.0645 0.157139,0.10382 0.08979,0.0393 0.190813,0.0393 0.103824,0 0.193618,-0.0393 0.08979,-0.0393 0.154333,-0.10382 0.06735,-0.0674 0.103824,-0.15714 0.03928,-0.0898 0.03928,-0.19081 0,-0.10102 -0.03928,-0.19082 -0.03648,-0.0898 -0.103824,-0.15714 -0.06454,-0.0673 -0.154333,-0.10382 -0.08979,-0.0393 -0.193618,-0.0393 z m 2.1690858,0.3704 q -0.02245,-0.0786 -0.06735,-0.14592 -0.04209,-0.0702 -0.103824,-0.11785 -0.06173,-0.0505 -0.140303,-0.0786 -0.07576,-0.0281 -0.1627508,-0.0281 -0.08699,0 -0.165558,0.0281 -0.07576,0.0281 -0.137497,0.0786 -0.06173,0.0477 -0.10663,0.11785 -0.0449,0.0673 -0.06454,0.14592 z m -0.4742238,0.85023 q -0.151528,0 -0.286219,-0.0561 -0.131884,-0.0589 -0.232903,-0.15714 -0.09821,-0.10102 -0.157139,-0.2329 -0.05612,-0.13189 -0.05612,-0.28341 0,-0.15153 0.05612,-0.28622 0.05893,-0.13469 0.157139,-0.23291 0.101019,-0.0982 0.232903,-0.15433 0.134691,-0.0589 0.286219,-0.0589 0.1515268,0 0.2834118,0.0589 0.13469,0.0561 0.232898,0.15433 0.0982,0.0982 0.15434,0.23291 0.0589,0.13469 0.0589,0.28622 0,0.0196 0,0.0421 0,0.0225 -0.006,0.0758 H 9.3898872 q 0.01964,0.0814 0.06454,0.14872 0.0449,0.0674 0.10663,0.11786 0.06173,0.0505 0.137497,0.0786 0.07857,0.0281 0.165558,0.0281 0.06735,0 0.13469,-0.0337 0.06735,-0.0365 0.1290788,-0.0954 l 0.168364,0.16836 q -0.0926,0.0898 -0.204843,0.14592 -0.1094358,0.0533 -0.2272898,0.0533 z m 1.5236898,-1.19819 h -0.56963 v -0.23851 h 0.98493 l -0.67346,1.16451 h 0.58366 v 0.23852 h -0.99334 z m 1.22905,-0.26938 q 0.15153,0 0.28342,0.0589 0.13469,0.0561 0.2329,0.15433 0.10102,0.0982 0.15714,0.23291 0.0589,0.13469 0.0589,0.28621 0,0.15153 -0.0589,0.28622 -0.0561,0.13189 -0.15714,0.2301 -0.0982,0.0982 -0.2329,0.15714 -0.13189,0.0561 -0.28342,0.0561 -0.15152,0 -0.28341,-0.0561 -0.13188,-0.0589 -0.2329,-0.15714 -0.0982,-0.0982 -0.15714,-0.2301 -0.0561,-0.13469 -0.0561,-0.28622 0,-0.15152 0.0561,-0.28621 0.0589,-0.1347 0.15714,-0.23291 0.10102,-0.0982 0.2329,-0.15433 0.13189,-0.0589 0.28341,-0.0589 z m 0,0.24132 q -0.10101,0 -0.19081,0.0393 -0.0898,0.0365 -0.15714,0.10382 -0.0673,0.0674 -0.10663,0.15714 -0.0365,0.0898 -0.0365,0.19081 0,0.10102 0.0365,0.19082 0.0393,0.0898 0.10663,0.15713 0.0674,0.0645 0.15714,0.10383 0.0898,0.0393 0.19081,0.0393 0.10102,0 0.19082,-0.0393 0.0898,-0.0393 0.15714,-0.10383 0.0673,-0.0673 0.10382,-0.15713 0.0393,-0.0898 0.0393,-0.19082 0,-0.10101 -0.0393,-0.19081 -0.0365,-0.0898 -0.10382,-0.15714 -0.0674,-0.0673 -0.15714,-0.10382 -0.0898,-0.0393 -0.19082,-0.0393 z m 1.72293,-0.24132 q 0.15152,0 0.28341,0.0589 0.13469,0.0561 0.2329,0.15433 0.10102,0.0982 0.15714,0.23291 0.0589,0.13469 0.0589,0.28621 v 0.70152 h -0.24132 v -0.70152 q 0,-0.10101 -0.0393,-0.19081 -0.0365,-0.0898 -0.10382,-0.15714 -0.0645,-0.0673 -0.15434,-0.10382 -0.0898,-0.0393 -0.19361,-0.0393 -0.10102,0 -0.19082,0.0393 -0.0898,0.0365 -0.15714,0.10382 -0.0645,0.0674 -0.10382,0.15714 -0.0393,0.0898 -0.0393,0.19081 v 0.70152 h -0.23851 v -0.70152 q 0,-0.15152 0.0561,-0.28621 0.0589,-0.1347 0.15714,-0.23291 0.10102,-0.0982 0.2329,-0.15433 0.13189,-0.0589 0.28342,-0.0589 z m 1.7173,0.006 q 0.15153,0 0.28342,0.0589 0.13469,0.0561 0.2329,0.15433 0.10102,0.0982 0.15714,0.23291 0.0589,0.13469 0.0589,0.28622 0,0.20203 -0.0982,0.36759 -0.0954,0.16556 -0.26096,0.26096 0.0814,0.0786 0.13469,0.18801 0.0533,0.11224 0.0533,0.23571 0,0.11505 -0.0477,0.21606 -0.0477,0.10383 -0.13188,0.17959 -0.0842,0.0758 -0.19643,0.12066 -0.10943,0.0449 -0.2357,0.0449 v -0.23851 q 0.0758,0 0.1431,-0.0253 0.0702,-0.0252 0.12067,-0.0702 0.0505,-0.0449 0.0786,-0.10383 0.0309,-0.0561 0.0309,-0.12346 0,-0.0674 -0.0252,-0.12627 -0.0253,-0.0561 -0.0701,-0.10102 -0.0449,-0.0449 -0.10383,-0.0702 -0.0561,-0.0253 -0.12347,-0.0253 -0.15152,0 -0.28341,-0.0561 -0.13188,-0.0589 -0.2329,-0.15714 -0.0982,-0.10102 -0.15714,-0.2329 -0.0561,-0.13189 -0.0561,-0.28341 0,-0.15153 0.0561,-0.28622 0.0589,-0.13469 0.15714,-0.23291 0.10102,-0.0982 0.2329,-0.15433 0.13189,-0.0589 0.28341,-0.0589 z m 0,0.24133 q -0.10101,0 -0.19081,0.0393 -0.0898,0.0365 -0.15714,0.10382 -0.0645,0.0674 -0.10382,0.15714 -0.0393,0.0898 -0.0393,0.19082 0,0.10101 0.0393,0.19081 0.0393,0.0898 0.10382,0.15714 0.0674,0.0645 0.15714,0.10382 0.0898,0.0393 0.19081,0.0393 0.10383,0 0.19362,-0.0393 0.0898,-0.0393 0.15434,-0.10382 0.0673,-0.0674 0.10382,-0.15714 0.0393,-0.0898 0.0393,-0.19081 0,-0.10102 -0.0393,-0.19082 -0.0365,-0.0898 -0.10382,-0.15714 -0.0645,-0.0673 -0.15434,-0.10382 -0.0898,-0.0393 -0.19362,-0.0393 z m 2.16909,0.3704 q -0.0224,-0.0786 -0.0673,-0.14592 -0.0421,-0.0702 -0.10383,-0.11785 -0.0617,-0.0505 -0.1403,-0.0786 -0.0758,-0.0281 -0.16275,-0.0281 -0.087,0 -0.16556,0.0281 -0.0758,0.0281 -0.1375,0.0786 -0.0617,0.0477 -0.10663,0.11785 -0.0449,0.0673 -0.0645,0.14592 z m -0.47422,0.85023 q -0.15153,0 -0.28622,-0.0561 -0.13189,-0.0589 -0.2329,-0.15714 -0.0982,-0.10102 -0.15714,-0.2329 -0.0561,-0.13189 -0.0561,-0.28341 0,-0.15153 0.0561,-0.28622 0.0589,-0.13469 0.15714,-0.23291 0.10101,-0.0982 0.2329,-0.15433 0.13469,-0.0589 0.28622,-0.0589 0.15152,0 0.28341,0.0589 0.13469,0.0561 0.2329,0.15433 0.0982,0.0982 0.15433,0.23291 0.0589,0.13469 0.0589,0.28622 0,0.0196 0,0.0421 0,0.0225 -0.006,0.0758 h -1.19819 q 0.0196,0.0814 0.0645,0.14872 0.0449,0.0674 0.10663,0.11786 0.0617,0.0505 0.1375,0.0786 0.0786,0.0281 0.16556,0.0281 0.0673,0 0.13469,-0.0337 0.0673,-0.0365 0.12908,-0.0954 l 0.16836,0.16836 q -0.0926,0.0898 -0.20484,0.14592 -0.10944,0.0533 -0.22729,0.0533 z m 1.73695,-1.46757 q 0.15152,0 0.28341,0.0589 0.13469,0.0561 0.2329,0.15433 0.10102,0.0982 0.15714,0.23291 0.0589,0.13469 0.0589,0.28621 v 0.70152 h -0.24132 v -0.70152 q 0,-0.10101 -0.0393,-0.19081 -0.0365,-0.0898 -0.10382,-0.15714 -0.0645,-0.0673 -0.15433,-0.10382 -0.0898,-0.0393 -0.19362,-0.0393 -0.10102,0 -0.19081,0.0393 -0.0898,0.0365 -0.15714,0.10382 -0.0645,0.0674 -0.10383,0.15714 -0.0393,0.0898 -0.0393,0.19081 v 0.70152 h -0.23852 v -0.70152 q 0,-0.15152 0.0561,-0.28621 0.0589,-0.1347 0.15714,-0.23291 0.10102,-0.0982 0.23291,-0.15433 0.13188,-0.0589 0.28341,-0.0589 z"
     id="text1"
     style="font-weight:bold;font-size:2.80606px;font-family:TimeBurner;-inkscape-font-specification:'TimeBurner, Bold';fill:#f2ca30;fill-opacity:0.980392;stroke:#f2ca30;stroke-width:0.0331425;stroke-linecap:round;stroke-linejoin:round"
     inkscape:label="TextIngezongen"
     aria-label="ingezongen" /><path
     d="m 10.235754,4.1592825 c 0.67968,0.74027 0.67968,1.76654 0,2.44623 l -0.5652883,-0.56866 c 0.282644,-0.39705 0.282644,-0.91186 0,-1.30891 l 0.5652883,-0.56866 m 1.11375,-1.13057 c 1.32574,1.36276 1.31227,3.40182 0,4.71074 l -0.54846,-0.54847 c 0.93204,-1.07 0.93204,-2.59763 0,-3.6138 l 0.54846,-0.54847 m -3.7214773,1.00944 c 0.740254,0 1.34592,0.60231 1.34592,1.34593 0,0.74363 -0.605666,1.34592 -1.34592,1.34592 -0.740267,0 -1.345933,-0.60229 -1.345933,-1.34592 0,-0.74362 0.602309,-1.34593 1.345933,-1.34593 m 1.34592,3.54651 c 0,0.35668 -0.09754,1.18778 -0.740254,2.11647 l -0.269189,-1.62521 0.312924,-0.63257 c -0.208616,-0.0235 -0.42733,-0.0403 -0.649401,-0.0403 -0.222084,0 -0.447525,0.0168 -0.656141,0.0403 l 0.319651,0.63257 -0.275916,1.62521 c -0.642674,-0.92869 -0.733527,-1.75979 -0.733527,-2.11647 -0.807554,0.23554 -1.347942,0.65951 -1.347942,1.16423 V 10.094812 H 10.319867 V 8.7488925 c 0,-0.50472 -0.5417363,-0.92869 -1.3459203,-1.16423 z"
     id="path1-1"
     style="fill:#f2ca30;fill-opacity:1;stroke-width:0.336481"
     inkscape:label="Voice" /><path
     id="path1"
     style="fill:#f2ca30;fill-opacity:1;stroke:#f2ca30;stroke-width:0.264583;stroke-opacity:1"
     class="st0"
     inkscape:label="Outline"
     d="m 17.311606,0.1323715 c -0.0371,0 -0.0741,2.3e-4 -0.10852,0.0134 H 1.6665645 c -0.415395,0 -0.804229,0.16913 -1.084688,0.44959 -0.277812,0.28046 -0.449585,0.65871 -0.449585,1.08469 V 31.112361 c 0,0.42598 0.169127,0.80423 0.449585,1.08469 0.280459,0.28046 0.65871,0.4501 1.084688,0.4501 H 24.468786 c 0.42598,0 0.80423,-0.16964 1.08469,-0.4501 0.27781,-0.28046 0.44959,-0.65871 0.44959,-1.08469 v -3.58479 h 2.62723 c 1.09802,0 2.00039,-0.90238 2.00039,-2.0004 v -8.31319 c 0,-1.09802 -0.89972,-2.00039 -2.00039,-2.00039 h -2.62723 V 9.0909715 c 0.0106,-0.0635 0.0238,-0.11067 0.0238,-0.17157 0,-0.20637 -0.0976,-0.38907 -0.23255,-0.524 l -7.93491,-8.03258 c -0.0238,-0.0238 -0.0372,-0.0344 -0.061,-0.0476 h -0.0238 c -0.12171,-0.10846 -0.29369,-0.18293 -0.46302,-0.18293 z M 2.2861655,2.1539515 H 16.181956 v 5.53765 c 0,0.5715 0.22987,1.25411 0.60823,1.63246 0.37835,0.37836 1.17768,0.6878095 1.75183,0.6878095 h 5.46892 v 5.20175 H 6.8445435 c -1.100666,0 -1.999878,0.89979 -1.999878,1.99781 v 8.31319 c 0,1.10067 0.904504,1.99988 1.999878,1.99988 H 24.008356 v 2.95279 c 0,0.0344 -0.0503,0.0847 -0.0873,0.10852 -0.0264,0.0238 -0.0237,0.0475 -0.0713,0.0475 H 2.2830645 c -0.0344,0 -0.08471,-0.0105 -0.10852,-0.0475 -0.02381,-0.0238 -0.04754,-0.0715 -0.04754,-0.10852 V 2.3126015 c 0,-0.0502 0.01095,-0.0846 0.05064,-0.11111 0.02381,-0.0238 0.0609,-0.0475 0.108521,-0.0475 z M 21.781096,17.239851 h 4.05557 l -1.59163,2.76831 c 0.22577,0.0677 0.43178,0.16942 0.61805,0.30489 0.19191,0.13547 0.35545,0.29639 0.49092,0.48266 0.14111,0.18062 0.24857,0.38348 0.32195,0.60926 0.079,0.22578 0.11833,0.46009 0.11833,0.7028 0,0.3048 -0.0592,0.59258 -0.17776,0.86352 -0.1129,0.26528 -0.27068,0.49959 -0.47388,0.70279 -0.19755,0.19756 -0.43186,0.35586 -0.70279,0.47439 -0.27094,0.11289 -0.55872,0.1695 -0.86352,0.1695 -0.3048,0 -0.58995,-0.0624 -0.85524,-0.18655 -0.26529,-0.12418 -0.4996,-0.29349 -0.7028,-0.50798 -0.19756,-0.21448 -0.35586,-0.46557 -0.47439,-0.75344 -0.1129,-0.28787 -0.16898,-0.59556 -0.16898,-0.92294 h 0.71933 c 0,0.23142 0.0398,0.44895 0.11886,0.65215 0.079,0.19756 0.18334,0.3695 0.31316,0.51625 0.13546,0.14676 0.29325,0.26523 0.47387,0.35554 0.18063,0.0847 0.37299,0.12712 0.57619,0.12712 0.20884,0 0.40332,-0.0393 0.58395,-0.11834 0.18062,-0.079 0.33892,-0.18648 0.47439,-0.32194 0.13546,-0.13547 0.23977,-0.29377 0.31315,-0.47439 0.079,-0.18062 0.11834,-0.37248 0.11834,-0.57568 0,-0.2032 -0.0393,-0.39505 -0.11834,-0.57567 -0.0734,-0.18063 -0.17769,-0.33579 -0.31315,-0.46561 -0.13547,-0.13546 -0.29377,-0.24241 -0.47439,-0.32143 -0.18063,-0.079 -0.37511,-0.11885 -0.58395,-0.11885 h -0.52503 l 1.54099,-2.65824 h -2.8112 z m -10.2278,0.83819 c 0.27658,0 0.53081,0.0592 0.76223,0.17777 0.23707,0.11853 0.4373,0.27894 0.601,0.48214 0.15804,-0.2032 0.35566,-0.36361 0.59273,-0.48214 0.23706,-0.11853 0.49391,-0.17777 0.77049,-0.17777 0.23707,0 0.45985,0.0451 0.66869,0.1354 0.20885,0.0903 0.39232,0.21454 0.55036,0.37258 0.15805,0.15804 0.28227,0.34151 0.37259,0.55036 0.0903,0.20884 0.13539,0.43162 0.13539,0.66869 v 4.52117 h -0.74518 v -4.52117 c 0,-0.13547 -0.0252,-0.26232 -0.076,-0.38086 -0.0508,-0.12418 -0.12156,-0.229 -0.21187,-0.31367 -0.0903,-0.0903 -0.19463,-0.16056 -0.31316,-0.21136 -0.11854,-0.0565 -0.24539,-0.0847 -0.38086,-0.0847 -0.13546,0 -0.26546,0.0283 -0.38964,0.0847 -0.11853,0.0508 -0.22285,0.12105 -0.31316,0.21136 -0.0903,0.0847 -0.16107,0.18949 -0.21187,0.31367 -0.0508,0.11854 -0.076,0.24539 -0.076,0.38086 v 4.52117 h -0.74517 v -4.52117 c 0,-0.13547 -0.0252,-0.26232 -0.076,-0.38086 -0.0508,-0.12418 -0.12157,-0.229 -0.21188,-0.31367 -0.0903,-0.0903 -0.19724,-0.16056 -0.32142,-0.21136 -0.11854,-0.0565 -0.24591,-0.0847 -0.38138,-0.0847 -0.13546,0 -0.26495,0.0283 -0.38912,0.0847 -0.11853,0.0508 -0.22336,0.12105 -0.31368,0.21136 -0.0903,0.0847 -0.16055,0.18949 -0.21135,0.31367 -0.0508,0.11854 -0.0765,0.24539 -0.0765,0.38086 v 4.52117 H 9.8261435 v -4.52117 c 0,-0.23707 0.04508,-0.45985 0.135392,-0.66869 0.09031,-0.20885 0.2119205,-0.39232 0.3643205,-0.55036 0.15804,-0.15804 0.34151,-0.28227 0.55035,-0.37258 0.21449,-0.0903 0.4399,-0.1354 0.67696,-0.1354 z m 5.40174,0.0677 h 2.1084 c 0.23707,0 0.45985,0.0451 0.66869,0.13539 0.20885,0.0903 0.39231,0.21454 0.55036,0.37259 0.15804,0.15805 0.28227,0.34151 0.37258,0.55035 0.0903,0.20885 0.1354,0.43425 0.1354,0.67696 0,0.23707 -0.0451,0.463 -0.1354,0.67748 -0.0903,0.20885 -0.21454,0.39232 -0.37258,0.55036 -0.15805,0.1524 -0.34151,0.274 -0.55036,0.36432 -0.20884,0.0903 -0.43162,0.13539 -0.66869,0.13539 h -1.37149 v 2.71766 h -0.73691 z m 0.73691,0.74466 v 1.973 h 1.37149 c 0.13547,0 0.26232,-0.0257 0.38085,-0.0765 0.12418,-0.0508 0.2285,-0.12104 0.31316,-0.21135 0.0903,-0.0903 0.16108,-0.19463 0.21188,-0.31316 0.0565,-0.11854 0.0847,-0.24591 0.0847,-0.38138 0,-0.13546 -0.0283,-0.26232 -0.0847,-0.38085 -0.0508,-0.12418 -0.12156,-0.23163 -0.21188,-0.32195 -0.0847,-0.0903 -0.18898,-0.16055 -0.31316,-0.21135 -0.11853,-0.0508 -0.24538,-0.0765 -0.38085,-0.0765 z" /><style
     type="text/css"
     id="style1">.st0{fill-rule:evenodd;clip-rule:evenodd;}</style></svg>
