<?xml version="1.0" encoding="UTF-8" standalone="no"?>
<!-- Created with Inkscape (http://www.inkscape.org/) -->

<svg
   width="30.498396mm"
   height="32.514809mm"
   viewBox="0 0 30.498396 32.514809"
   version="1.1"
   id="svg1"
   xml:space="preserve"
   xmlns="http://www.w3.org/2000/svg"
   xmlns:svg="http://www.w3.org/2000/svg"><defs
     id="defs1" /><path
     id="path1"
     style="fill:#ff2116;fill-opacity:1;stroke-width:0.264583"
     class="st0"
     d="m 17.179315,0 c -0.0371,0 -0.0741,2.3e-4 -0.10852,0.0134 H 1.534273 C 1.118879,0.0134 0.730044,0.18253 0.449585,0.46299 0.171773,0.74345 0,1.1217 0,1.54768 v 29.43231 c 0,0.42598 0.169127,0.80423 0.449585,1.08469 0.280459,0.28046 0.658711,0.4501 1.084688,0.4501 h 22.802222 c 0.42598,0 0.80423,-0.16964 1.08469,-0.4501 0.27781,-0.28046 0.44959,-0.65871 0.44959,-1.08469 V 27.3952 h 2.62723 c 1.09802,0 2.00039,-0.90238 2.00039,-2.0004 v -8.31319 c 0,-1.09802 -0.89972,-2.00039 -2.00039,-2.00039 h -2.62723 V 8.9586 c 0.0106,-0.0635 0.0238,-0.11067 0.0238,-0.17157 0,-0.20637 -0.0976,-0.38907 -0.23255,-0.524 l -7.93491,-8.03258 c -0.0238,-0.0238 -0.0372,-0.0344 -0.061,-0.0476 h -0.0238 C 17.520605,0.07439 17.348625,-8e-5 17.179295,-8e-5 Z M 2.153874,2.02158 h 13.895791 v 5.53765 c 0,0.5715 0.22987,1.25411 0.60823,1.63246 0.37835,0.37836 1.17768,0.68781 1.75183,0.68781 h 5.46892 v 5.20175 H 6.712252 c -1.100665,0 -1.999878,0.89979 -1.999878,1.99781 v 8.31319 c 0,1.10067 0.904505,1.99988 1.999878,1.99988 h 17.163813 v 2.95279 c 0,0.0344 -0.0503,0.0847 -0.0873,0.10852 -0.0264,0.0238 -0.0237,0.0475 -0.0713,0.0475 H 2.150773 c -0.0344,0 -0.08471,-0.0105 -0.10852,-0.0475 -0.02381,-0.0238 -0.04754,-0.0715 -0.04754,-0.10852 V 2.18023 c 0,-0.0502 0.01095,-0.0846 0.05064,-0.11111 0.02381,-0.0238 0.0609,-0.0475 0.108521,-0.0475 z m 7.133931,15.98404 c 0.190925,-0.0129 0.401992,0.0986 0.515731,0.32556 0.15792,0.31515 0.141721,0.88581 -0.04547,1.60559 l -0.153479,0.59014 0.135392,0.22944 c 0.07435,0.12622 0.291574,0.42605 0.482661,0.66611 l 0.35915,0.44649 0.447,-0.0584 c 1.41969,-0.18525 1.90583,0.12992 1.90583,0.58136 0,0.56977 -1.11493,0.61667 -2.05104,-0.0408 -0.21063,-0.14793 -0.35502,-0.29507 -0.35502,-0.29507 0,0 -0.58666,0.11958 -0.875397,0.1974 -0.298041,0.0803 -0.446571,0.13065 -0.883151,0.27802 0,0 -0.153397,0.22224 -0.253214,0.38396 -0.371359,0.60165 -0.805,1.10062 -1.114661,1.28209 C 7.05543,24.4007 6.692172,24.4146 6.509168,24.23161 6.14819,23.87063 6.538608,23.37445 7.598508,22.84772 L 8.26565,22.51596 8.525066,21.94752 c 0.142898,-0.31266 0.35662,-0.82241 0.47439,-1.13327 L 9.213396,20.24891 9.065602,19.83033 C 8.884164,19.31601 8.819744,18.54349 8.93486,18.26557 9.00308,18.10088 9.139313,18.01564 9.28781,18.00564 Z m 5.12113,0.0987 h 2.1084 c 0.23707,0 0.45985,0.0451 0.6687,0.13539 0.20884,0.0903 0.39231,0.21455 0.55035,0.37259 0.15805,0.15805 0.28227,0.34151 0.37259,0.55035 0.0903,0.20884 0.13539,0.43477 0.13539,0.67748 0,0.23707 -0.0451,0.46299 -0.13539,0.67748 -0.0903,0.20885 -0.21454,0.39231 -0.37259,0.55035 -0.15804,0.1524 -0.34151,0.2735 -0.55035,0.36381 -0.20885,0.0903 -0.43163,0.13539 -0.6687,0.13539 h -1.37149 v 2.71818 h -0.73691 z m 9.56738,0 h 3.82716 v 0.74517 h -3.09025 v 1.97301 h 2.70061 v 0.74466 h -2.70061 v 2.71818 h -0.73691 z m -5.1139,0.009 h 2.10013 c 0.31045,0 0.60085,0.0592 0.87178,0.17776 0.27658,0.11854 0.51665,0.27946 0.71985,0.48266 0.2032,0.2032 0.36413,0.44276 0.48266,0.71934 0.11854,0.27093 0.17777,0.56185 0.17777,0.87229 v 1.67639 c 0,0.31044 -0.0592,0.60398 -0.17777,0.88056 -0.11853,0.27094 -0.27946,0.50787 -0.48266,0.71107 -0.2032,0.2032 -0.44327,0.36413 -0.71985,0.48266 -0.27093,0.11853 -0.56133,0.17777 -0.87178,0.17777 l -2.10013,-0.0253 z m -9.538436,0.0827 c -0.172244,-0.019 -0.318836,0.21022 -0.283704,0.65681 0.01576,0.20032 0.06576,0.54288 0.132292,0.75395 l 0.120923,0.38396 0.08527,-0.28939 c 0.04683,-0.15897 0.118203,-0.50054 0.159163,-0.75912 0.03064,-0.25711 0.04385,-0.51392 -0.03876,-0.64338 -0.05728,-0.0626 -0.117769,-0.0965 -0.175183,-0.10283 z m 5.821866,0.6537 v 1.97301 h 1.37149 c 0.13547,0 0.26233,-0.0257 0.38086,-0.0765 0.12418,-0.0508 0.22901,-0.12105 0.31367,-0.21136 0.0903,-0.0903 0.16056,-0.19514 0.21136,-0.31367 0.0565,-0.11854 0.0848,-0.24539 0.0848,-0.38086 0,-0.13546 -0.0283,-0.26232 -0.0848,-0.38085 -0.0508,-0.12418 -0.12104,-0.23164 -0.21136,-0.32195 -0.0847,-0.0903 -0.18949,-0.16055 -0.31367,-0.21135 -0.11853,-0.0508 -0.24539,-0.0765 -0.38086,-0.0765 z m 4.45348,0.009 v 4.69894 h 1.36322 c 0.20885,0 0.40332,-0.0398 0.58394,-0.11886 0.18627,-0.079 0.34719,-0.18596 0.48266,-0.32143 0.14111,-0.1411 0.25119,-0.30203 0.33021,-0.48265 0.079,-0.18627 0.11834,-0.38389 0.11834,-0.59273 V 20.3656 c 0,-0.20884 -0.0393,-0.40383 -0.11834,-0.58446 -0.079,-0.18626 -0.1891,-0.34719 -0.33021,-0.48265 -0.13547,-0.13547 -0.29639,-0.24241 -0.48266,-0.32143 -0.18062,-0.079 -0.37509,-0.11834 -0.58394,-0.11834 z M 9.511047,20.71029 c 0,0 -0.123738,0.39805 -0.225309,0.63768 l -0.316776,0.78342 -0.09198,0.17776 c 0,0 0.488393,-0.16039 0.736906,-0.2253 0.263213,-0.0688 0.797371,-0.17364 0.797371,-0.17364 l -0.19172,-0.23564 C 10.099419,21.5483 9.895327,21.2849 9.765816,21.08907 9.596433,20.86693 9.511051,20.71029 9.511051,20.71029 Z m 1.998848,1.21181 c -0.27876,0.019 -0.72709,0.0754 -0.80305,0.0925 0,0 0.2462,0.16998 0.35553,0.23254 0.14554,0.0831 0.49936,0.23723 0.75758,0.31626 0.2547,0.078 0.40202,0.0701 0.51366,-0.01 0.19847,-0.13901 0.1696,-0.41933 -0.0548,-0.53226 -0.17462,-0.0879 -0.31532,-0.10592 -0.76894,-0.0992 z m -3.4215,0.86299 -0.523999,0.26355 c -0.809476,0.407 -1.179583,0.79014 -0.98702,1.02216 0.108176,0.13035 0.23742,0.11976 0.498161,-0.0413 0.202912,-0.12541 0.61384,-0.61112 0.898137,-1.06195 z" /><g
     id="layer2"
     transform="translate(-89.778499,-132.24258)"><path
       d="m 0,-39 c 0,68 73,172 200,172 66,0 114,-37 114,-95 0,-84 -106,-171 -218,-171 -64,0 -96,30 -96,94 z"
       id="path12"
       style="overflow:visible;fill:#ff0000;fill-opacity:1;stroke:#ff2116;stroke-opacity:1"
       transform="matrix(0.00401123,0,0,-0.00401123,99.636678,141.00553)" /><path
       d="M 1581,1118 V 530"
       style="overflow:visible;fill:#ff0000;fill-opacity:1;stroke:#ff2116;stroke-width:20;stroke-opacity:1"
       id="path11"
       transform="matrix(0.00557115,0,0,0.00557115,94.539075,134.15302)" /><path
       d="m 0,-39 c 0,68 73,172 200,172 66,0 114,-37 114,-95 0,-84 -106,-171 -218,-171 -64,0 -96,30 -96,94 z"
       id="path13"
       style="overflow:visible;fill:#ff0000;fill-opacity:1;stroke:#ff2116;stroke-opacity:1"
       transform="matrix(0.00401123,0,0,-0.00401123,102.14369,140.50413)" /><path
       d="M 1131,1208 V 576"
       style="overflow:visible;fill:#ff0000;fill-opacity:1;stroke:#ff2116;stroke-width:20;stroke-opacity:1"
       id="path10"
       transform="matrix(0.00557115,0,0,0.00557115,94.539075,134.15302)" /><polygon
       style="overflow:visible;fill:#ff0000;fill-opacity:1;fill-rule:nonzero;stroke:#ff2116;stroke-opacity:1"
       stroke-width="0"
       points="1591,510 1591,600 1121,646 1121,556 "
       id="polygon11"
       transform="matrix(0.00557115,0,0,0.00557115,94.539075,134.15302)" /><path
       d="m 441,-245 c -23,-4 -48,-6 -76,-6 -59,0 -102,7 -130,20 C 147,-189 85,-138 48,-77 22,-33 5,26 0,99 c -4,60 11,123 44,189 29,57 65,106 110,148 45,42 96,85 153,127 -3,16 -8,46 -13,92 -4,43 -5,73 -5,89 0,117 16,172 69,257 34,54 64,82 89,82 21,0 43,-30 69,-92 26,-62 39,-115 41,-159 2,-120 -19,-173 -67,-256 -13,-20 -63,-90 -98,-118 -13,-9 -25,-19 -37,-29 l 31,-181 c 8,1 18,2 28,2 58,0 102,-12 133,-35 59,-43 92,-104 98,-184 11,-135 -80,-229 -180,-270 8,-57 17,-110 25,-162 5,-31 6,-58 6,-80 0,-30 -5,-53 -14,-70 -35,-64 -88,-99 -158,-103 -42,-3 -83,6 -124,26 -50,24 -77,59 -80,105 -2,34 5,63 20,87 18,28 45,42 79,44 51,4 99,-40 103,-87 4,-56 -30,-94 -105,-115 17,-24 51,-36 102,-36 62,0 116,43 140,85 9,16 13,41 13,74 0,20 -1,42 -5,67 -8,53 -18,106 -26,159 z m 20,1184 c -95,0 -135,-175 -135,-286 0,-24 2,-48 5,-71 50,39 92,82 127,128 43,57 63,106 60,148 -4,54 -23,82 -57,81 z m -55,-820 54,-326 c 80,27 116,88 109,184 -7,99 -62,146 -163,142 z m -24,-2 C 308,115 250,67 254,-10 c 2,-46 43,-99 75,-115 -3,-2 -7,-5 -10,-10 -70,33 -116,88 -123,172 -5,73 42,135 88,170 23,17 49,29 78,36 L 333,413 C 312,400 281,376 241,340 191,296 155,256 132,221 83,146 61,81 65,26 c 5,-68 35,-127 93,-176 58,-49 125,-73 203,-73 25,0 50,3 75,9 -19,111 -36,221 -54,331 z"
       id="path9"
       style="overflow:visible;fill:#ff0000;fill-opacity:1;stroke:#ff2116;stroke-opacity:1"
       transform="matrix(0.00401123,0,0,-0.00401123,95.040479,139.50132)" /><path
       d="m 0,405 v 750"
       style="overflow:visible;fill:#ff0000;fill-opacity:1;stroke:#ff2116;stroke-width:30;stroke-opacity:1"
       id="path3-0"
       transform="matrix(0.00557115,0,0,0.00557115,94.539075,134.15302)" /><path
       d="M 0,1140 H 1928"
       style="overflow:visible;fill:#ff0000;fill-opacity:1;stroke:#ff2116;stroke-width:30;stroke-opacity:1"
       id="path8"
       transform="matrix(0.00557115,0,0,0.00557115,94.539075,134.15302)" /><path
       d="M 0,960 H 1928"
       style="overflow:visible;fill:#ff0000;fill-opacity:1;stroke:#ff2116;stroke-width:30;stroke-opacity:1"
       id="path7"
       transform="matrix(0.00557115,0,0,0.00557115,94.539075,134.15302)" /><path
       d="M 0,780 H 1928"
       style="overflow:visible;fill:#ff0000;fill-opacity:1;stroke:#ff2116;stroke-width:30;stroke-opacity:1"
       id="path6"
       transform="matrix(0.00557115,0,0,0.00557115,94.539075,134.15302)" /><path
       d="M 0,600 H 1928"
       style="overflow:visible;fill:#ff0000;fill-opacity:1;stroke:#ff2116;stroke-width:30;stroke-opacity:1"
       id="path5"
       transform="matrix(0.00557115,0,0,0.00557115,94.539075,134.15302)" /><path
       d="M 0,420 H 1928"
       style="overflow:visible;fill:#ff0000;fill-opacity:1;stroke:#ff2116;stroke-width:30;stroke-opacity:1"
       id="path4"
       transform="matrix(0.00557115,0,0,0.00557115,94.539075,134.15302)" /></g><style
     type="text/css"
     id="style1">.st0{fill-rule:evenodd;clip-rule:evenodd;}</style></svg>
