<?xml version="1.0" encoding="UTF-8" standalone="no"?>
<svg
   height="43.057846"
   width="46.71719"
   viewBox="0 0 46.71719 43.057846"
   version="1.1"
   id="svg5"
   xmlns="http://www.w3.org/2000/svg"
   xmlns:svg="http://www.w3.org/2000/svg">
  <defs
     id="defs9" />
  <g
     id="g3"
     transform="translate(-2,-2.1907364)">
    <path
       id="path1"
       fill="#060505"
       d="M 45.967186,8.1958223 V 39.19537 L 24.368643,23.578033 Z M 31.609553,4.4105983 4.7171902,23.561664 31.601245,43.001427 33.212744,40.772578 9.4334392,23.578113 33.204519,6.6503554 Z M 48.717191,2.862168 19.652384,23.561533 48.717191,44.577151Z M 2.0333982,3.5460167 V 45.248583 c 0,-17.893915 0,-25.759816 0,-41.7025663 z m 2.750005,-0.1457283 c 30.6225248,-2.0950056 15.3112628,-1.0475028 0,0 z"
       style="stroke-width:1.375" />
    <path
       id="path339"
       fill="#060505"
       d="M 2.0333982,3.5460167 V 45.248583 c 0,-17.893915 0,-25.759816 0,-41.7025663 z m 2.750005,-0.1457283 c 30.6225248,-2.0950056 15.3112628,-1.0475028 0,0 z"
       style="stroke-width:1.375" />
    <path
       style="fill:#000000"
       d="M 1.9339024,2.9839078 H 4.6934778 V 44.625405 H 1.9339024 Z"
       id="path1653" />
  </g>
</svg>
