<?xml version="1.0" encoding="UTF-8" standalone="no"?>
<!-- Created with Inkscape (http://www.inkscape.org/) -->

<svg
   width="15.723107mm"
   height="20.026281mm"
   viewBox="0 0 15.723108 20.026282"
   version="1.1"
   id="svg1"
   inkscape:version="1.3.1 (91b66b0783, 2023-11-16)"
   sodipodi:docname="instrumental.svg"
   xmlns:inkscape="http://www.inkscape.org/namespaces/inkscape"
   xmlns:sodipodi="http://sodipodi.sourceforge.net/DTD/sodipodi-0.dtd"
   xmlns="http://www.w3.org/2000/svg"
   xmlns:svg="http://www.w3.org/2000/svg">
  <sodipodi:namedview
     id="namedview1"
     pagecolor="#ffffff"
     bordercolor="#000000"
     borderopacity="0.25"
     inkscape:showpageshadow="2"
     inkscape:pageopacity="0.0"
     inkscape:pagecheckerboard="0"
     inkscape:deskcolor="#d1d1d1"
     inkscape:document-units="mm"
     inkscape:zoom="5.7941077"
     inkscape:cx="-3.7969608"
     inkscape:cy="57.385885"
     inkscape:window-width="1920"
     inkscape:window-height="1009"
     inkscape:window-x="1912"
     inkscape:window-y="-1"
     inkscape:window-maximized="1"
     inkscape:current-layer="layer1" />
  <defs
     id="defs1" />
  <g
     inkscape:label="Laag 1"
     inkscape:groupmode="layer"
     id="layer1"
     transform="translate(-143.13937,-82.020842)">
    <path
       d="m 158.82357,91.03369 c -0.0576,-0.04821 -0.17145,-0.11861 -0.34017,-0.177825 -0.16616,-0.05864 -0.67922,-0.22222 -0.67922,-0.22222 0,0 -0.21617,-1.355831 -0.22861,-1.440994 -0.0132,-0.08512 -0.0923,-0.359709 -0.10827,-0.418637 -0.0159,-0.05939 -0.10475,-0.54085 -0.1302,-0.699949 -0.0265,-0.159542 -0.1839,-1.015173 -0.21564,-1.207757 -0.032,-0.19243 -0.28592,-1.633586 -0.32406,-1.863197 -0.0381,-0.229522 -0.20636,-1.288883 -0.20636,-1.288883 0,0 0.45107,-0.407788 0.53322,-0.481928 0.0828,-0.07427 0.15266,-0.129436 0.20663,-0.162823 0.0539,-0.03335 0.51416,-0.333524 0.61891,-0.403894 0.10505,-0.07054 0.27659,-0.181421 0.28924,-0.192612 0.0132,-0.01142 0.0132,-0.03705 0.0412,-0.06306 0.0283,-0.0254 0.0887,-0.09599 0.0887,-0.09599 l -0.0346,-0.09273 c 0,0 -0.78774,-0.1225 -0.93061,-0.140759 -0.14279,-0.01879 -0.4096,-0.05959 -0.4096,-0.05959 l -2.62614,1.789382 -6.29417,4.293305 -1.99416,1.363441 c 0,0 0.0159,0.06268 0.0323,0.06636 0.0159,0.0036 0.0947,-0.0076 0.11396,0.02221 0.0212,-0.0034 0.0478,-0.01481 0.0639,-0.01852 0.0159,-0.0037 0.0603,0 0.0603,0 0,0 -0.0953,0.07024 -0.10158,0.07766 -0.007,0.0072 0.003,0.04467 -0.0132,0.07024 -0.0159,0.02618 -0.038,0.04841 -0.035,0.06713 0.003,0.01826 0.0159,0.0704 0.0317,0.07383 0.0159,0.004 0.28567,-0.07788 0.28567,-0.07788 0,0 0.0132,0.0077 0.003,0.03709 -0.007,0.01852 -0.0103,0.05567 -0.0103,0.05567 0,0 -2.47054,0.718403 -2.48916,0.729844 -0.0104,0.05912 -0.007,0.688985 0,0.71454 0.007,0.02645 0.06,0.177982 0.0667,0.281883 0.0132,0.151657 0.0103,0.61856 -0.0447,0.829894 -0.0537,0.211031 -0.12993,0.466596 -0.35559,0.59589 -0.22543,0.130092 -0.39386,0.159566 -0.47615,0.27445 -0.0828,0.114749 -0.0733,0.274305 -0.0701,0.425947 0.003,0.151682 0.0186,0.599809 0.0265,0.611248 0.007,0.01083 0.10138,0.01083 0.10138,0.02566 0,0.01534 0,0.300454 0.0351,0.355666 0.035,0.05567 0.0477,0.07053 0.19658,0.09658 0.1495,0.02593 1.12712,0.253917 1.31811,0.29258 0.18413,0.03665 0.59046,0.144241 0.59046,0.144241 0,0 0.16907,1.900729 0.17806,1.99317 0.0103,0.09609 0.0794,0.822227 0.0825,0.914496 0.003,0.09287 -0.0158,0.178138 -0.0381,0.215521 -0.0211,0.03675 -0.0186,0.05911 -0.0159,0.0924 0.003,0.03299 0.0512,0.573893 0.0605,0.588636 0.0103,0.0153 0.4542,0.126233 0.46673,0.129989 0.0132,0.0041 0.31144,-0.218517 0.32685,-0.237222 0.0159,-0.01825 0.0383,-0.62599 0.0383,-0.648188 0,-0.02251 -0.0572,-0.0961 -0.0603,-0.1336 -0.003,-0.03667 0.0132,-0.418014 0.0211,-0.577528 0.0103,-0.159223 0.11133,-2.074648 0.11133,-2.074648 0,0 1.5142,0.320989 1.64789,0.348416 0.16191,0.03335 1.87346,0.425766 1.87346,0.425766 0,0 0.0539,2.111738 0.0576,2.223104 0.003,0.111016 0.0314,1.26666 0.0314,1.26666 0,0 -0.0504,-0.01876 -0.0667,-0.01478 -0.0157,0.0028 -0.30198,0.251647 -0.30837,0.262907 -0.007,0.0114 -0.003,0.02599 -0.007,0.03334 -0.003,0.008 -0.035,0.0298 -0.038,0.0372 -0.003,0.008 -0.003,0.47032 0,0.48163 0.003,0.0104 0.0442,0.008 0.0442,0.0145 0,0.008 -0.003,0.0407 -0.003,0.0407 0,0 -0.0701,0.0184 -0.12727,0.0115 -0.0572,-0.008 -0.15875,0.0515 -0.16511,0.10387 -0.007,0.0514 0.007,0.0924 0.11748,0.11078 0.11088,0.0189 0.27031,-0.0182 0.3336,-0.0443 0.0632,-0.026 0.11718,-0.0707 0.11718,-0.0707 l 0.31469,0.10039 c 0,0 -0.1273,0.0736 -0.15876,0.0964 -0.0318,0.0222 -0.0507,0.12936 0.0286,0.15908 0.0793,0.0297 0.1717,0.0482 0.24763,0.0148 0.0762,-0.0334 0.10797,-0.13347 0.12379,-0.15909 0.0159,-0.0263 0.035,-0.0409 0.035,-0.0409 l 0.36859,0.10384 c 0,0 -0.0426,0.078 -0.0475,0.12952 -0.007,0.059 -0.0159,0.16282 0.14294,0.18126 0.15846,0.0185 0.21271,-0.0371 0.23175,-0.0665 0.0186,-0.0295 -0.0445,-0.10725 -0.0603,-0.13339 -0.0159,-0.0259 0.003,-0.0443 0.003,-0.0443 0,0 0.35265,0.096 0.37181,0.0927 0.0186,-0.004 0.27938,-0.26293 0.28246,-0.2778 0.003,-0.0148 0,-0.0704 0.003,-0.0779 0.003,-0.008 0.0283,-0.0222 0.0283,-0.037 0,-0.0148 0.0159,-0.45203 0.0132,-0.47044 -0.003,-0.0184 -0.0186,-0.0226 -0.0314,-0.0259 -0.0132,-0.004 0,-0.0333 -0.007,-0.0408 -0.007,-0.008 -0.20663,-0.0706 -0.20663,-0.0706 0,0 -0.0635,-0.0478 -0.0887,-0.0557 -0.0265,-0.008 -0.0414,-0.0183 -0.0414,-0.0183 l 1.07666,-3.248635 3.37843,0.718699 c 0,0 0.0412,3.263536 0.0351,3.311776 -0.008,0.0483 -0.003,0.12609 -0.0132,0.14807 -0.0102,0.0223 -0.0699,0.14448 -0.0699,0.15201 0,0.008 0.0186,0.69246 0.0212,0.71852 0.0159,0.0148 0.0186,0.0185 0.0379,0.0222 0.0186,0.004 0.56845,0.15952 0.58728,0.15205 0.0186,-0.008 0.20028,-0.30795 0.20982,-0.3225 0.0103,-0.0148 0.0988,-0.71873 0.0923,-0.73359 -0.007,-0.0148 -0.0479,-0.12935 -0.0512,-0.15168 -0.003,-0.0222 0.0159,-0.25205 0.0265,-0.32976 0.0103,-0.0779 0.41608,-3.504226 0.41608,-3.504226 0,0 -0.003,-0.02595 0.008,-0.04469 0.0132,-0.01825 0.0603,-0.05901 0.073,-0.122148 0.0132,-0.06311 0.0508,-0.181419 0.0795,-0.262988 0.0289,-0.08128 0.0986,-0.307169 0.21272,-0.492655 0.11426,-0.185101 0.16536,-0.259234 0.18759,-0.314479 0.0211,-0.0556 0.0159,-0.08927 0.0286,-0.10806 0.0132,-0.01826 0.43198,-0.473608 0.4413,-0.488465 0.0103,-0.01481 0.0103,-0.296592 0.0159,-0.31537 0.007,-0.01826 0.095,-0.110857 0.10798,-0.132903 0.0132,-0.02196 0.035,-0.155573 0.0476,-0.207379 0.0132,-0.05208 0.0701,-0.133473 0.0766,-0.159699 0.007,-0.02592 0.19365,-3.181793 0.19365,-3.181793 0,0 0.0159,-0.09242 -0.0414,-0.14066 z m -9.98063,-1.90774 c -0.0186,0.02221 -0.0103,0.04794 -0.0103,0.04794 l -2.0007,0.574197 -0.035,-0.01053 c 0,0 0.0159,-0.02618 -0.007,-0.06699 l 2.05466,-0.596508 c 0,0 0.0159,0.02944 -0.003,0.05207 z m 0.26626,-0.03001 -0.0474,-0.01481 c 0,0 0.0212,-0.03661 0,-0.06996 0.041,-0.01112 1.68299,-0.481454 1.68299,-0.481454 0,0 8.3e-4,0.01772 -0.0103,0.02435 -0.0419,0.02593 -0.0103,0.05103 0.0238,0.04437 0.003,0.01375 0.007,0.02408 0.007,0.02408 z m 1.52119,10.713208 -0.0412,-0.0078 0.0539,-3.419342 0.12701,0.02593 z m 0.0544,0.01846 0.13358,-3.404334 0.31413,0.05926 -0.0476,3.445256 z m 0.52084,0.133213 -0.0762,-0.01846 0.0539,-3.448668 0.0412,0.01083 z m 0.40006,0 0.15531,-3.341342 0.88922,0.189154 z m 5.1602,-9.757138 c 0.007,-0.117863 0.0412,-1.052258 0.0442,-1.096296 0.003,-0.04452 0.008,-0.140936 -0.15506,-0.21148 -0.16216,-0.07024 -0.38143,-0.144241 -0.68918,-0.196184 -0.30814,-0.05191 -0.49224,-0.08168 -0.74611,-0.111177 -0.25426,-0.02945 -1.17494,-0.12218 -1.4163,-0.137074 -0.24157,-0.01448 -0.98446,-0.07037 -1.16896,-0.07765 -0.18416,-0.0072 -0.45048,0 -0.63501,0.01112 -0.18416,0.01112 -0.33936,0.02977 -0.44753,0.04081 -0.10797,0.01142 -0.65751,0.155493 -0.65751,0.155493 0,0 0.0159,-0.03336 -0.007,-0.08886 0,0 0.42547,-0.122311 0.55905,-0.166684 0.13358,-0.04437 0.79374,-0.34066 0.97142,-0.429541 0.17807,-0.08927 1.02896,-0.585486 1.18784,-0.678197 0.15875,-0.09258 0.21298,-0.125749 0.21298,-0.125749 0,0 0.008,0.02593 0.0505,0.0037 0.0414,-0.02223 0.0211,-0.05196 0.0211,-0.05196 0,0 0.89834,-0.548282 1.06994,-0.655404 0.17172,-0.107314 0.62247,-0.403957 0.77479,-0.515091 0.15214,-0.111045 0.43178,-0.314928 0.54,-0.44829 0.10798,-0.13349 0.0921,-0.151656 0.0861,-0.188724 -0.007,-0.03734 -0.0265,-0.103875 -0.0635,-0.126204 -0.038,-0.02196 -0.37484,-0.162821 -0.43186,-0.203618 -0.0573,-0.04035 -0.0573,-0.06667 -0.0666,-0.103421 -0.0103,-0.0375 -0.003,-0.159729 0.0858,-0.296621 0.0887,-0.137073 0.17488,-0.255582 0.28233,-0.3669 0.10827,-0.110855 0.27313,-0.281258 0.27313,-0.281258 0,0 0.21298,1.396335 0.23177,1.514782 0.0186,0.119063 0.26089,1.659615 0.27632,1.763498 0.0159,0.103423 0.18731,1.225888 0.20346,1.348109 0.0158,0.122604 0.0539,0.440831 0.057,0.485315 0.003,0.04463 0,0.155836 0.003,0.203726 0.003,0.04825 0.213,1.3298 0.213,1.3298 0,0 -0.50217,-0.17769 -0.66072,-0.29989 z"
       id="path1-2"
       style="overflow:hidden;fill:#000080;fill-opacity:0.980392;stroke-width:0.0195588" />
  </g>
</svg>
