<?xml version="1.0" encoding="UTF-8" standalone="no"?>
<svg
   height="48"
   width="48"
   viewBox="0 0 48 48"
   version="1.1"
   id="svg5"
   sodipodi:docname="Renumber.svg"
   inkscape:version="1.2.1 (9c6d41e410, 2022-07-14)"
   xmlns:inkscape="http://www.inkscape.org/namespaces/inkscape"
   xmlns:sodipodi="http://sodipodi.sourceforge.net/DTD/sodipodi-0.dtd"
   xmlns="http://www.w3.org/2000/svg"
   xmlns:svg="http://www.w3.org/2000/svg">
  <defs
     id="defs9" />
  <sodipodi:namedview
     id="namedview7"
     pagecolor="#ffffff"
     bordercolor="#000000"
     borderopacity="0.25"
     inkscape:showpageshadow="2"
     inkscape:pageopacity="0.0"
     inkscape:pagecheckerboard="0"
     inkscape:deskcolor="#d1d1d1"
     showgrid="false"
     inkscape:zoom="19.589744"
     inkscape:cx="24.400524"
     inkscape:cy="19.959424"
     inkscape:window-width="1920"
     inkscape:window-height="991"
     inkscape:window-x="-9"
     inkscape:window-y="-9"
     inkscape:window-maximized="1"
     inkscape:current-layer="svg5" />
  <g
     id="g3"
     style="fill:#000000"
     transform="matrix(0.70256349,0,0,0.69491525,22.765474,5.4915254)" />
  <g
     id="g3002"
     transform="translate(2.5546182,1.684555)">
    <g
       id="g451"
       style="fill:#000000"
       transform="matrix(0.56427488,0,0,0.56427488,2.9068708,15.180411)" />
    <g
       id="g455"
       style="fill:#000000"
       transform="matrix(0.56427488,0,0,0.56427488,15.292071,15.180411)" />
    <g
       id="g612"
       style="fill:#000000"
       transform="matrix(0.57239239,0,0,0.57239239,-7.3235012,14.807007)" />
  </g>
  <g
     id="g3011"
     transform="translate(-1.8301575,1.684555)">
    <g
       id="g293"
       style="fill:#000000"
       transform="matrix(0.53290538,0,0,0.53290538,0.38767829,-5.0682855)" />
    <g
       id="g447"
       style="fill:#000000"
       transform="matrix(0.53290538,0,0,0.53290538,12.979777,-4.8335175)" />
    <g
       id="g458"
       style="fill:#000000"
       transform="matrix(0.54057163,0,0,0.54057163,22.426541,-5.420933)" />
    <path
       id="path2982"
       style="opacity:1;fill:#000000;stroke-width:12.5921;stroke-dasharray:none"
       d="M 8.0527272,19.074996 39.742292,0.81975011 40.534355,2.1947055 8.6585917,20.557215 7.8665282,19.18226 Z M 36.004317,0.55721469 h 2.650056 V 19.445362 H 36.004317 V 3.4410996 L 33.315289,5.0908897 V 2.3498999 Z M 26.316661,3.021438 25.092489,3.2056207 24.265259,3.7581648 23.79369,4.6377917 23.636501,5.8032163 V 14.19936 l 0.157189,1.157487 0.471569,0.881214 0.82723,0.557308 1.224172,0.185769 1.224174,-0.185769 0.827229,-0.557308 0.471569,-0.881214 0.157189,-1.157487 V 5.8032163 L 28.839633,4.6377917 28.368064,3.7581648 27.540835,3.2056207 Z m 0,-2.46422376 1.227746,0.0869307 1.066586,0.26079163 0.905428,0.43465311 0.744268,0.608514 0.580729,0.7625284 0.414805,0.8966954 0.248884,1.0308607 0.08296,1.1650281 V 14.19936 l -0.08296,1.159868 -0.248884,1.028083 -0.414805,0.896298 -0.580729,0.764513 -0.744268,0.611292 -0.905428,0.436638 -1.066586,0.261983 -1.227746,0.08733 -1.238066,-0.08852 -1.072143,-0.265554 -0.906221,-0.442592 -0.740299,-0.619629 -0.575172,-0.770466 -0.410836,-0.895107 -0.246502,-1.019748 -0.08217,-1.144387 V 5.8032163 l 0.08336,-1.1598675 0.250075,-1.0280826 0.41679,-0.8962984 0.583507,-0.764513 0.746253,-0.6112931 0.905031,-0.43663705 1.063807,-0.26198268 z M 14.130071,3.0214382 12.905898,3.2056208 12.078669,3.7581648 11.6071,4.6377919 11.449911,5.8032164 V 14.19936 l 0.157189,1.157486 0.471569,0.881214 0.827229,0.557309 1.224173,0.185769 1.224173,-0.185769 0.82723,-0.557309 0.471569,-0.881214 0.157189,-1.157486 V 5.8032164 L 16.653043,4.6377919 16.181474,3.7581648 15.354244,3.2056208 Z m 0,-2.46422373 1.227746,0.0869306 1.066586,0.26079162 0.905428,0.43465288 0.744268,0.6085139 0.580728,0.7625285 0.414806,0.8966954 0.248884,1.030861 0.08296,1.165028 V 14.19936 l -0.08296,1.159868 -0.248884,1.028083 -0.414806,0.896298 -0.580728,0.764513 -0.744268,0.611292 -0.905428,0.436638 -1.066586,0.261982 -1.227746,0.08733 -1.238066,-0.08852 L 11.819862,19.091288 10.91364,18.648697 10.173341,18.029068 9.5981703,17.258602 9.187334,16.363495 8.9408321,15.343747 8.8586649,14.19936 V 5.8032164 L 8.942023,4.6433487 9.1920974,3.6152663 9.6088878,2.7189679 10.192395,1.9544547 10.938648,1.3431619 11.843678,0.90652439 12.907486,0.64454182 Z M 11.438306,21.137058 h 2.806052 V 41.137057 H 11.438306 V 24.190703 L 8.5909889,25.937608 V 23.03527 Z m 22.78988,2.609279 -1.296234,0.195024 -0.875924,0.58507 -0.499328,0.931406 -0.166442,1.234027 v 8.890383 l 0.166442,1.225622 0.499328,0.933087 0.875924,0.590114 1.296234,0.196705 1.296234,-0.196705 0.875925,-0.590114 0.499327,-0.933087 0.166443,-1.225622 v -8.890383 l -0.166443,-1.234027 -0.499327,-0.931406 -0.875925,-0.58507 z m 0,-2.609281 1.300017,0.09205 1.129371,0.276143 0.958726,0.460239 0.78808,0.644334 0.614912,0.807415 0.439224,0.949479 0.263534,1.091543 0.08784,1.233607 v 8.890383 l -0.08784,1.228144 -0.263534,1.088601 -0.439224,0.949059 -0.614912,0.809516 -0.78808,0.647276 -0.958726,0.46234 -1.129371,0.277404 -1.300017,0.09247 -1.310945,-0.09373 -1.135255,-0.281188 -0.959566,-0.468645 -0.783877,-0.656102 -0.609028,-0.815821 -0.43502,-0.947797 -0.261013,-1.079775 -0.087,-1.211752 v -8.890383 l 0.08827,-1.228143 0.264795,-1.088601 0.441325,-0.949059 0.617855,-0.809516 0.790181,-0.647276 0.958306,-0.462341 1.126429,-0.277404 z m -12.3852,2.609281 -1.296234,0.195024 -0.875925,0.58507 -0.499327,0.931406 -0.166442,1.234027 v 8.890383 l 0.166442,1.225622 0.499327,0.933087 0.875925,0.590114 1.296234,0.196705 1.296234,-0.196705 0.875925,-0.590114 0.499327,-0.933087 0.166443,-1.225622 v -8.890383 l -0.166443,-1.234027 -0.499327,-0.931406 -0.875925,-0.58507 z m 0,-2.609281 1.300017,0.09205 1.129371,0.276143 0.958726,0.460239 0.78808,0.644334 0.614912,0.807415 0.439224,0.949479 0.263534,1.091543 0.08784,1.233607 v 8.890383 l -0.08784,1.228144 -0.263534,1.088601 -0.439224,0.949059 -0.614912,0.809516 -0.78808,0.647276 -0.958726,0.46234 -1.129371,0.277404 -1.300017,0.09247 -1.310945,-0.09373 -1.135255,-0.281188 -0.959566,-0.468645 -0.783877,-0.656102 -0.609028,-0.815821 -0.435021,-0.947797 -0.261012,-1.079775 -0.087,-1.211752 v -8.890383 l 0.08826,-1.228143 0.264795,-1.088601 0.441325,-0.949059 0.617855,-0.809516 0.790181,-0.647276 0.958305,-0.462341 1.126429,-0.277404 z" />
  </g>
</svg>
